<?xml version="1.0" standalone="no"?><!DOCTYPE svg PUBLIC "-//W3C//DTD SVG 1.1//EN" "http://www.w3.org/Graphics/SVG/1.1/DTD/svg11.dtd"><svg t="1603187895211" class="icon" viewBox="0 0 1024 1024" version="1.1" xmlns="http://www.w3.org/2000/svg" p-id="44858" xmlns:xlink="http://www.w3.org/1999/xlink" width="200" height="200"><defs><style type="text/css"></style></defs><path d="M503.043565 1024q-9.241671-0.171142-18.483342-0.684568l0.912758-18.255153c5.932925 0.342284 11.86585 0.570474 17.798774 0.570473l-0.22819 18.369248z m18.483343 0l-0.342284-18.255153q8.899387-0.171142 17.798774-0.684568l1.026853 18.255153c-6.161114 0.342284-12.436323 0.570474-18.483343 0.684568z m-55.450028-1.93961c-6.161114-0.570474-12.322228-1.255042-18.369248-1.93961l2.281894-18.141059c5.81883 0.684568 11.86585 1.369136 17.68468 1.93961z m92.302619-0.114095l-1.597326-18.141058c5.932925-0.570474 11.86585-1.140947 17.684679-1.93961l2.281895 18.141058c-6.047019 0.798663-12.208134 1.369136-18.369248 1.93961z m-128.92702-4.563788c-6.047019-1.026852-12.208134-2.053705-18.141058-3.308747l3.536936-17.912869c5.81883 1.140947 11.751755 2.281894 17.570585 3.194652l-2.966463 18.026964z m165.665515 0l-2.966462-18.026964c5.81883-0.912758 11.751755-2.053705 17.570585-3.194652l3.536936 17.912869c-6.047019 1.140947-12.094039 2.281894-18.141059 3.308747z m-201.947632-7.187967c-5.932925-1.369136-11.979944-2.966462-17.912869-4.563788l4.906072-17.570585c5.704735 1.597326 11.523565 3.080557 17.228301 4.449694l-4.221504 17.684679z m238.115655-0.114094l-4.221504-17.798775c5.81883-1.369136 11.523565-2.852368 17.2283-4.449693l4.906073 17.570585c-5.932925 1.711421-11.86585 3.194652-17.912869 4.677883z m-273.713204-9.69805c-5.81883-1.825515-11.751755-3.87922-17.570585-5.932925l6.161115-17.228301c5.590641 1.93961 11.295376 3.87922 17.000111 5.704735z m309.310752-0.22819l-5.476546-17.45649c5.590641-1.825515 11.295376-3.651031 16.886017-5.704735l6.161114 17.2283c-5.81883 2.167799-11.63766 4.107409-17.570585 5.932925z m-344.223732-12.208134q-8.557103-3.422841-17.114206-7.187966l7.416156-16.657827c5.476546 2.395989 10.953092 4.677883 16.429638 6.959777z m379.022618-0.228189l-6.731587-17.000111q8.214819-3.251699 16.429637-6.845683l7.416156 16.657827q-8.557103 3.765125-17.114206 7.187967z m-412.908746-14.832312c-5.476546-2.624178-11.067187-5.476546-16.543733-8.328914l8.557103-16.087353c5.248357 2.738273 10.610808 5.476546 15.973259 8.100724z m446.68078 0l-7.98663-16.429638c5.248357-2.624178 10.610808-5.248357 15.859164-8.100724l8.557104 16.087354c-5.362451 2.966462-10.953092 5.704735-16.429638 8.443008z m-479.425961-17.342396c-5.362451-3.080557-10.610808-6.275209-15.859165-9.583955l9.69805-15.51688c5.020167 3.194652 10.154429 6.275209 15.288691 9.241671z m512.057047 0l-9.127577-15.745069c5.134262-2.966462 10.268524-6.047019 15.288691-9.241671l9.69805 15.51688c-5.248357 3.194652-10.610808 6.389304-15.859164 9.46986z m31.26195-19.624289l-10.268524-15.060502c4.906072-3.308747 9.812145-6.731588 14.604123-10.268523l10.838997 14.718217c-5.020167 3.536936-10.154429 7.187967-15.174596 10.610808z m-574.695042 0c-5.020167-3.422841-10.154429-7.073872-15.060501-10.724903l10.838997-14.718217c4.791978 3.536936 9.69805 6.959777 14.604122 10.268524l-10.382618 15.174596z m604.473761-21.792089l-11.295376-14.375933c4.677883-3.651031 9.241671-7.416156 13.805459-11.295377l11.86585 13.919555c-4.791978 3.993315-9.583955 7.872535-14.375933 11.751755z m-634.25248-0.114095c-4.791978-3.765125-9.583955-7.75844-14.261838-11.751755l11.86585-13.919554c4.449694 3.87922 9.127577 7.644345 13.805459 11.295376z m662.319778-23.845794l-12.322229-13.463175c4.335599-3.993315 8.671198-8.100724 12.892702-12.208134l12.778607 13.006797c-4.221504 4.221504-8.785292 8.557103-13.34908 12.664512z m-690.50117-0.114095c-4.563788-4.107409-9.013482-8.443008-13.463176-12.664512l12.778607-13.006797c4.221504 4.107409 8.557103 8.328914 12.892702 12.208134z m716.971142-25.785404l-13.234986-12.550417c4.107409-4.335599 8.100724-8.671198 11.979944-13.120892l13.691365 12.094039c-4.107409 4.563788-8.214819 9.127577-12.436323 13.57727z m-743.32702-0.114094c-4.221504-4.449694-8.443008-9.013482-12.436323-13.691365l13.691365-12.094039c3.87922 4.449694 7.98663 8.899387 11.979944 13.120891z m767.743287-27.610919l-14.147744-11.523566c3.765125-4.563788 7.416156-9.241671 11.067187-14.033649l14.490028 11.067187c-3.651031 4.906072-7.530251 9.812145-11.409471 14.490028z m-792.273649-0.114095c-3.87922-4.791978-7.75844-9.583955-11.409471-14.490028l14.490028-11.067187c3.536936 4.677883 7.302061 9.355766 11.067187 13.919555z m814.636212-29.32234l-14.946407-10.496713c3.422841-4.791978 6.845682-9.812145 10.040334-14.718217l15.288691 10.040334c-3.308747 5.020167-6.845682 10.154429-10.382618 15.174596z m-836.998775 0c-3.536936-5.020167-7.073872-10.154429-10.382618-15.288691l15.288691-10.040334c3.194652 4.906072 6.617493 9.92624 10.040334 14.718217l-14.946407 10.610808z m-20.194763-30.919666c-3.194652-5.248357-6.275209-10.610808-9.241671-15.973259l15.973259-8.899387c2.852368 5.134262 5.81883 10.382618 8.899387 15.402786l-15.630975 9.46986z m877.502396 0l-15.630975-9.46986q4.620836-7.701393 8.899387-15.402786l15.973259 8.899387c-2.966462 5.248357-6.047019 10.724903-9.241671 15.973259zM55.335933 743.897493c-2.738273-5.476546-5.476546-11.067187-8.100724-16.543733l16.543733-7.644345c2.510084 5.362451 5.134262 10.724903 7.75844 15.973259L55.335933 743.897493z m913.328134-0.114095l-16.315543-8.328913c2.738273-5.248357 5.362451-10.724903 7.75844-16.087354l16.543732 7.644345c-2.395989 5.704735-5.134262 11.295376-7.986629 16.771922zM39.819053 710.467744c-2.395989-5.590641-4.677883-11.409471-6.845683-17.114206l17.114207-6.503399c2.053705 5.476546 4.335599 11.067187 6.617493 16.543733z m944.475989-0.342284l-16.886017-7.073872c2.281894-5.476546 4.563788-11.067187 6.617493-16.543733l17.114206 6.503398c-2.167799 5.704735-4.449694 11.523565-6.845682 17.114207zM26.812256 676.011142c-1.93961-5.81883-3.87922-11.751755-5.59064-17.570585l17.45649-5.248356c1.711421 5.704735 3.536936 11.409471 5.362451 17.000111z m970.603677-0.570473l-17.342395-5.818831c1.93961-5.590641 3.651031-11.295376 5.362451-17.000111l17.45649 5.134262c-1.711421 5.932925-3.536936 11.86585-5.476546 17.68468z m-981.214485-34.912981c-1.483231-5.932925-2.966462-11.979944-4.335598-18.026964l17.798774-3.87922c1.255042 5.81883 2.624178 11.63766 4.107409 17.342396l-17.570585 4.563788z m991.711198-0.456379l-17.684679-4.563788c1.483231-5.704735 2.852368-11.523565 4.107409-17.342396l17.798774 3.87922c-1.255042 6.047019-2.738273 12.094039-4.221504 18.026964zM8.328914 604.47376c-1.140947-6.047019-2.053705-12.208134-2.966463-18.255153l18.026964-2.624178c0.798663 5.81883 1.825515 11.751755 2.852368 17.570585l-17.912869 3.308746z m1007.456267-0.570473l-17.912869-3.308747c1.026852-5.81883 2.053705-11.751755 2.852368-17.570585l18.026963 2.624179c-0.912758 6.161114-1.825515 12.208134-2.966462 18.255153zM2.966462 567.849359c-0.684568-6.047019-1.255042-12.322228-1.71142-18.369248l18.255153-1.369136c0.456379 5.932925 0.912758 11.86585 1.597326 17.798774z m1018.067076-0.456378l-18.141059-1.939611c0.684568-5.932925 1.140947-11.86585 1.597326-17.798774l18.255153 1.255042q-0.684568 9.241671-1.71142 18.483343zM0.342284 530.996769q-0.342284-9.241671-0.342284-18.483343h18.255153c0 5.932925 0.114095 11.979944 0.342284 17.798775l-18.255153 0.684568z m1023.315432-0.456379l-18.255153-0.684568q0.342284-8.899387 0.342284-17.798775v-1.026852l18.255153-0.114095v1.026853c0 6.161114-0.114095 12.436323-0.342284 18.597437z m-1005.174373-35.825738l-18.255154-0.684568c0.228189-6.161114 0.570474-12.322228 0.912758-18.483343l18.255153 1.255042c-0.342284 5.932925-0.684568 11.979944-0.912757 17.912869z m986.91922-1.483231q-0.342284-8.899387-1.026853-17.798775l18.255154-1.369136q0.684568 9.241671 1.026852 18.483342zM20.993426 459.117103l-18.141058-1.93961c0.684568-6.047019 1.369136-12.322228 2.281894-18.369248l18.026964 2.624178c-0.798663 5.81883-1.483231 11.751755-2.1678 17.68468z m981.784958-1.483231c-0.684568-5.932925-1.369136-11.86585-2.281894-17.68468l18.026964-2.624178c0.912758 6.047019 1.711421 12.208134 2.395989 18.369248l-18.141059 1.93961zM26.013593 423.861838l-17.912869-3.194651c1.140947-6.047019 2.281894-12.094039 3.651031-18.141059l17.798774 3.87922c-1.255042 5.704735-2.395989 11.63766-3.536936 17.45649z m971.63053-1.483231c-1.026852-5.81883-2.281894-11.63766-3.536936-17.45649l17.798774-3.993315c1.369136 5.932925 2.510084 12.094039 3.651031 18.141059zM33.657939 389.062953L15.973259 384.499164c1.483231-5.932925 3.194652-11.979944 4.906072-17.798774l17.456491 5.134262c-1.597326 5.704735-3.194652 11.409471-4.677883 17.228301z m956.341838-1.483232c-1.483231-5.704735-3.080557-11.523565-4.791978-17.114206l17.456491-5.248356c1.711421 5.932925 3.422841 11.86585 5.020167 17.798774zM43.698273 354.83454l-17.342396-5.81883c1.93961-5.81883 3.993315-11.751755 6.161115-17.45649l17.114206 6.389304c-1.93961 5.590641-3.993315 11.295376-5.932925 16.886016z m936.03298-1.369136c-1.93961-5.590641-3.87922-11.295376-6.047019-16.771922l17.114206-6.503398c2.167799 5.704735 4.335599 11.63766 6.275209 17.342395zM56.362786 321.404791l-16.886017-7.073872c2.395989-5.704735 4.906072-11.409471 7.416156-17.000111l16.543732 7.644345c-2.395989 5.476546-4.791978 10.953092-7.073871 16.429638z m910.703955-1.255042c-2.281894-5.476546-4.677883-10.953092-7.187967-16.201448l16.543733-7.75844c2.624178 5.590641 5.134262 11.181281 7.530251 16.886016zM71.309192 289.001894l-16.315543-8.214819c2.738273-5.476546 5.704735-10.953092 8.671198-16.315543l15.973259 8.899387c-2.852368 5.020167-5.590641 10.268524-8.328914 15.630975z m880.811142-1.026852c-2.624178-5.248357-5.476546-10.496713-8.328913-15.74507l15.973259-8.899387c2.966462 5.362451 5.932925 10.838997 8.671197 16.315543zM88.651588 257.739944L73.020613 248.270084c3.194652-5.248357 6.503398-10.496713 9.812145-15.630975l15.28869 9.926239c-3.194652 5.020167-6.389304 10.040334-9.46986 15.174596z m846.126351-0.912757c-3.080557-5.020167-6.275209-10.154429-9.469861-15.060502l15.288691-10.040334c3.308747 5.134262 6.617493 10.382618 9.812145 15.630975zM108.161783 227.847131l-14.946407-10.496713c3.536936-5.020167 7.187967-10.040334 10.953092-14.946407l14.490028 11.067187c-3.536936 4.677883-7.073872 9.469861-10.496713 14.375933z m807.105961-0.798663c-3.422841-4.791978-6.959777-9.583955-10.496713-14.375933l14.490027-11.067187c3.765125 4.906072 7.416156 9.92624 10.953092 14.832312z m-785.542062-27.610919l-14.147743-11.523566c3.87922-4.791978 7.872535-9.469861 11.979944-14.147743l13.691365 12.094039c-3.87922 4.449694-7.75844 9.013482-11.523566 13.57727z m763.978162-0.684568c-3.765125-4.563788-7.644345-9.127577-11.523565-13.577271l13.691364-12.094039c4.107409 4.563788 8.100724 9.355766 11.979945 14.033649z m-740.474652-26.127689l-13.234986-12.550417c4.221504-4.449694 8.557103-8.899387 12.892702-13.234986l12.778607 13.006796-12.436323 12.778607z m716.857048-0.570473c-4.107409-4.335599-8.214819-8.557103-12.550418-12.664513l12.778607-13.006796c4.335599 4.335599 8.785292 8.785292 13.006797 13.120891l-13.234986 12.550418z m-691.413928-24.416267l-12.322228-13.463176c4.563788-4.107409 9.127577-8.214819 13.805459-12.208134l11.86585 13.919555c-4.449694 3.87922-9.013482 7.75844-13.349081 11.751755z m665.970808-0.570474c-4.335599-3.993315-8.899387-7.98663-13.349081-11.751755l11.86585-13.919554c4.677883 3.993315 9.355766 8.100724 13.919554 12.208134z m-638.816268-22.476657l-11.295376-14.261839c4.791978-3.765125 9.69805-7.530251 14.718218-11.181281l10.838997 14.718217c-4.906072 3.422841-9.583955 7.073872-14.261839 10.724903z m611.661727-0.570474c-4.677883-3.651031-9.469861-7.302061-14.261838-10.838997l10.724902-14.718217c4.906072 3.651031 9.92624 7.416156 14.718218 11.181281z m-582.90986-20.537047l-10.268524-15.060502c5.020167-3.422841 10.268524-6.845682 15.402786-10.154429l9.69805 15.402786c-5.020167 3.194652-10.040334 6.503398-14.832312 9.812145z m554.043899-0.570474c-4.906072-3.308747-9.92624-6.617493-14.946406-9.69805l9.69805-15.51688c5.248357 3.308747 10.382618 6.617493 15.51688 10.154429l-10.268524 15.060501zM264.699721 84.544178l-9.127576-15.745069c5.248357-3.080557 10.724903-6.047019 16.087354-9.013482l8.557103 16.087354c-5.248357 2.852368-10.496713 5.704735-15.516881 8.671197z m493.6878-0.570473c-5.134262-2.966462-10.382618-5.81883-15.630975-8.671198l8.557103-16.087354c5.476546 2.852368 10.838997 5.932925 16.201448 9.013482zM296.075766 67.772256l-7.98663-16.429638c5.476546-2.738273 11.181281-5.248357 16.771922-7.75844l7.416156 16.657828c-5.476546 2.510084-10.953092 5.020167-16.201448 7.53025z m430.821616-0.456379c-5.362451-2.624178-10.838997-5.134262-16.201449-7.53025l7.302061-16.657828c5.590641 2.510084 11.295376 5.134262 16.771922 7.758441L726.897382 67.315877zM328.592758 53.396323l-6.731588-17.000111c5.704735-2.281894 11.523565-4.449694 17.342395-6.503399l6.161115 17.228301c-5.704735 1.93961-11.295376 4.107409-16.771922 6.275209z m365.559443-0.456379c-5.476546-2.167799-11.181281-4.335599-16.771922-6.275209l6.161114-17.2283c5.81883 2.053705 11.63766 4.221504 17.342395 6.503398z m-332.015599-11.523565L356.545961 23.959889c5.81883-1.825515 11.751755-3.651031 17.68468-5.248357l4.906072 17.570585c-5.590641 1.597326-11.409471 3.308747-17.000111 5.134262z m298.35766-0.456379c-5.704735-1.825515-11.409471-3.422841-17.114206-5.020167l4.791977-17.570585c5.932925 1.597326 11.86585 3.422841 17.68468 5.248356l-5.362451 17.342396z m-264.015153-9.127577l-4.221505-17.798774c5.932925-1.483231 11.979944-2.738273 18.026964-3.993315l3.651031 17.912869c-5.932925 1.255042-11.751755 2.510084-17.45649 3.87922z m229.672646-0.342284c-5.704735-1.369136-11.63766-2.624178-17.45649-3.765125l3.536936-17.912869c6.047019 1.140947 12.094039 2.510084 18.026963 3.87922z m-194.759666-6.731587l-2.966462-18.026964c6.047019-1.026852 12.208134-1.93961 18.255153-2.624179l2.281894 18.141059c-5.81883 0.684568-11.751755 1.597326-17.570585 2.510084z m159.732591-0.22819c-5.81883-0.912758-11.751755-1.825515-17.68468-2.510083l2.281894-18.141059c6.047019 0.798663 12.208134 1.597326 18.255153 2.624178l-2.852367 18.026964z m-124.363232-4.221504l-1.597325-18.141059q9.241671-0.85571 18.483342-1.369136l1.026853 18.255153c-6.047019 0.228189-12.094039 0.684568-17.91287 1.255042z m88.993872-0.114095c-5.932925-0.570474-11.86585-0.912758-17.798774-1.255042l0.912758-18.255153c6.161114 0.342284 12.322228 0.798663 18.483342 1.255042z m-53.396323-1.825515l-0.342284-18.255153c3.308747-0.114095 6.731588-0.114095 10.040334-0.114095 2.852368 0 5.704735 0 8.443009 0.114095l-0.342284 18.255153c-2.738273 0-5.590641-0.114095-8.328914-0.114095-3.080557 0-6.275209 0-9.469861 0.114095z" fill="#0A0408" p-id="44859"></path><path d="M512.171142 439.721003v372.062841l-349.2439-95.611365V366.928579" fill="#FFFFFF" p-id="44860"></path><path d="M521.298719 823.763788l-367.499053-100.631532V366.928579h18.255153v342.284123L503.043565 799.8039V439.721003h18.255154z" fill="#0A0408" p-id="44861"></path><path d="M436.868635 499.27844v198.638886l-198.638886-41.416379v-198.524791" fill="#EBB866" p-id="44862"></path><path d="M511.942953 439.721003v372.062841l349.243899-95.611365V366.928579" fill="#55B7A8" p-id="44863"></path><path d="M502.815376 823.763788V439.721003h18.255153V799.8039l330.988747-90.591198v-342.284123h18.255153v356.203677z" fill="#0A0408" p-id="44864"></path><path d="M514.453036 434.130362l-349.2439-72.792423 349.2439-87.396546 349.357995 87.396546z" fill="#FFFFFF" p-id="44865"></path><path d="M172.283008 372.062841l-47.919777-9.926239 47.463399-11.86585 0.798662 3.308747 3.422842 0.684568-1.483231 6.845682 1.71142 6.845683-3.308746 0.798663z m663.004346-8.443008l-17.45649-4.335599 4.449693-17.68468 17.45649 4.335599z m-641.554541 0l-4.449693-17.68468 17.45649-4.335599 4.449694 17.68468z m34.912981-8.785293l-4.449694-17.684679 17.456491-4.335599 4.449693 17.68468z m571.728579 0l-17.45649-4.335598 4.449694-17.68468 17.45649 4.335599z m-34.91298-8.671197l-17.45649-4.335599 4.449693-17.68468 17.45649 4.335599z m-501.902619 0l-4.449693-17.68468 17.45649-4.335599 4.449694 17.68468z m466.989638-8.785293l-17.45649-4.335599 4.449694-17.684679 17.45649 4.335598z m-432.076657 0l-4.449694-17.68468 17.456491-4.335598 4.449693 17.684679z m34.91298-8.671198l-4.449693-17.684679 17.45649-4.335599 4.449694 17.684679z m362.250697 0l-17.45649-4.335599 4.449693-17.684679 17.45649 4.335599z m-34.912981-8.785292l-17.45649-4.335599 4.449694-17.68468 17.45649 4.335599z m-292.424735 0l-4.449694-17.68468 17.456491-4.335599 4.449693 17.68468z m257.39766-8.671198l-17.45649-4.335599 4.449693-17.684679 17.456491 4.335598z m-222.48468 0l-4.449693-17.68468 17.45649-4.335598 4.449694 17.684679z m34.912981-8.785292l-4.449694-17.68468 17.456491-4.335599 4.449693 17.68468z m152.658719 0l-17.456491-4.335599 4.449694-17.68468 17.45649 4.335599z m-34.912981-8.671198l-17.45649-4.335599 4.449693-17.68468 17.456491 4.335599z m-82.832758 0l-4.449693-17.68468 17.45649-4.335599 4.449694 17.68468z m34.912981-8.785293l-4.449694-17.684679 10.953092-2.738273 10.953092 2.738273-4.449693 17.684679-6.503399-1.597326-6.503398 1.597326z m348.787521 87.054262l-0.684568-3.308746-3.308747-0.798663 1.711421-6.845683-1.483232-6.845682 3.308747-0.684568 0.798663-3.308747 47.577493 11.86585z" fill="#0A0408" p-id="44866"></path><path d="M514.453036 443.372033l-10.610808-2.167799 3.765126-17.912869 6.845682 1.483231 6.845683-1.483231 3.765125 17.912869z m28.067298-5.81883l-3.765125-17.912869 17.45649-3.536936 3.765126 17.912869-17.456491 3.536936z m-56.020501 0l-17.45649-3.65103 3.765125-17.912869 17.45649 3.65103z m90.933482-7.302061l-3.765126-17.912869 17.456491-3.651031 3.765125 17.912869z m-125.846463 0l-17.45649-3.651031 3.765125-17.912869 17.456491 3.651031z m160.759443-7.187967l-3.765125-17.912869 17.45649-3.65103 3.765126 17.912869z m-195.672423 0l-17.45649-3.65103 3.765125-17.912869 17.45649 3.65103z m230.585404-7.302061l-3.765126-17.912869 17.456491-3.651031 3.765125 17.91287z m-265.498385 0l-17.45649-3.65103 3.765125-17.91287 17.456491 3.651031z m300.411365-7.302061l-3.765125-17.912869 17.45649-3.651031 3.765126 17.912869zM346.847911 408.459053l-17.45649-3.651031 3.765125-17.912869 17.45649 3.651031z m370.237326-7.302061l-3.765126-17.912869 17.456491-3.651031 3.765125 17.912869-17.45649 3.651031z m-405.150307 0l-17.45649-3.651031 3.765125-17.912869 17.456491 3.651031z m440.063287-7.187967l-3.765125-17.912869 17.45649-3.651031 3.765126 17.912869z m-474.976267 0l-17.45649-3.651031 3.765125-17.912869 17.45649 3.651031z m509.889248-7.302061l-3.765126-17.912869 17.456491-3.651031 3.765125 17.912869z m-544.802229 0l-17.45649-3.651031 3.765125-17.912869 17.456491 3.651031z m579.715209-7.302061l-3.765125-17.91287 17.45649-3.65103 3.765126 17.912869z m-614.628189 0l-17.45649-3.651031 3.765125-17.912869 17.45649 3.65103z" fill="#0A0408" p-id="44867"></path><path d="M132.007577 337.263955h54.765459v54.76546h-54.765459z" fill="#FFFFFF" p-id="44868"></path><path d="M195.900613 401.156992h-73.020613v-73.020613h73.020613z m-54.76546-18.255154h36.510307v-36.510306h-36.510307z" fill="#0A0408" p-id="44869"></path><path d="M839.508858 337.263955h54.76546v54.76546h-54.76546z" fill="#FFFFFF" p-id="44870"></path><path d="M903.401894 401.156992h-73.020613v-73.020613h73.020613z m-54.765459-18.255154h36.510306v-36.510306h-36.510306z" fill="#0A0408" p-id="44871"></path><path d="M487.070306 784.401114h54.76546v54.76546h-54.76546z" fill="#FFFFFF" p-id="44872"></path><path d="M550.963343 848.29415h-73.020613v-73.020612h73.020613z m-54.76546-18.255153h36.510306v-36.510306h-36.510306z" fill="#0A0408" p-id="44873"></path><path d="M135.544513 688.789749h54.765459v54.76546h-54.765459z" fill="#FFFFFF" p-id="44874"></path><path d="M199.437549 752.682786h-73.020613v-73.020613h73.020613z m-54.76546-18.255154h36.510307v-36.510306h-36.510307z" fill="#0A0408" p-id="44875"></path><path d="M839.508858 688.789749h54.76546v54.76546h-54.76546z" fill="#FFFFFF" p-id="44876"></path><path d="M903.401894 752.682786h-73.020613v-73.020613h73.020613z m-54.765459-18.255154h36.510306v-36.510306h-36.510306z" fill="#0A0408" p-id="44877"></path><path d="M487.070306 246.558663h54.76546v54.76546h-54.76546z" fill="#FFFFFF" p-id="44878"></path><path d="M550.963343 310.451699h-73.020613v-73.020613h73.020613z m-54.76546-18.255153h36.510306v-36.510306h-36.510306z" fill="#0A0408" p-id="44879"></path><path d="M485.472981 405.036212h58.074206v58.074206h-58.074206z" fill="#DC444A" p-id="44880"></path><path d="M552.674763 472.237994h-76.329359V395.908635h76.329359z m-58.074206-18.255153h39.819053V414.163788h-39.819053v39.819053z" fill="#0A0408" p-id="44881"></path></svg>