<?xml version="1.0" standalone="no"?><!DOCTYPE svg PUBLIC "-//W3C//DTD SVG 1.1//EN" "http://www.w3.org/Graphics/SVG/1.1/DTD/svg11.dtd"><svg t="1603187255206" class="icon" viewBox="0 0 1024 1024" version="1.1" xmlns="http://www.w3.org/2000/svg" p-id="32226" xmlns:xlink="http://www.w3.org/1999/xlink" width="200" height="200"><defs><style type="text/css"></style></defs><path d="M465.408 90.112c-4.096 50.688-4.608 76.288-39.936 87.552 34.816 11.264 35.84 37.376 39.936 87.552 4.096-50.688 4.608-76.288 39.936-87.552-35.328-11.264-35.84-37.376-39.936-87.552zM674.304 198.656c-3.584 42.496-4.096 64.512-33.792 73.728 29.184 9.728 30.208 31.744 33.792 73.728 3.584-42.496 4.096-64.512 33.792-73.728-30.208-9.216-30.208-31.232-33.792-73.728zM751.104 164.864c-2.56 29.184-2.56 44.032-23.04 50.176 19.968 6.656 20.48 21.504 23.04 50.176 2.56-29.184 2.56-44.032 23.04-50.176-20.48-6.656-20.48-21.504-23.04-50.176zM812.544 225.28c-4.096 48.128-4.608 72.192-37.888 82.944 32.768 10.752 33.792 35.328 37.888 82.944 4.096-48.128 4.608-72.192 37.888-82.944-33.792-10.752-34.304-35.328-37.888-82.944zM372.224 238.592c-3.072 36.864-3.584 55.808-29.184 64 25.6 8.192 26.112 27.136 29.184 64.512 3.072-36.864 3.584-55.808 29.184-64.512-26.112-8.704-26.624-27.136-29.184-64z" fill="#FFCD1F" p-id="32227"></path><path d="M20.992 406.016c-1.536-11.776 40.96-22.016 48.128-23.552 8.192-1.536 35.328 5.632 50.176 13.824 57.856 31.232 85.504 43.008 140.8 49.664 47.104 5.632 70.656 0 113.152-35.84 27.648-23.552 125.952 1.024 119.296 101.376-3.072 52.736 138.752 118.784 97.792 153.088-54.784 46.08-178.176 19.968-241.152-7.168-79.36-33.792-168.448-166.4-256.512-222.208-71.168-45.568-71.168-27.648-71.68-29.184z" fill="#FFC412" p-id="32228"></path><path d="M20.992 406.016c2.56-11.776 10.24-12.8 53.248 5.632C117.76 429.568 180.736 496.64 211.456 500.224c20.992 2.048 2.048-43.52 16.896-59.392 0 0 25.6 4.096 31.744 5.12 47.104 5.632 70.656 0 113.152-35.84 27.648-23.552 125.952 1.024 119.296 101.376-3.072 52.736 138.752 118.784 97.792 153.088-54.784 46.08-178.176 19.968-241.152-7.168-79.36-33.792-168.448-166.4-256.512-222.208-71.168-45.568-72.192-27.648-71.68-29.184z" fill="#FFAC06" p-id="32229"></path><path d="M924.672 415.744c-37.888 31.744-58.88 36.864-100.864 32.256-49.152-5.632-140.288 151.04-69.632 181.248 56.32 24.064 132.608 44.544 233.984-104.96 47.104-70.144-38.912-129.536-63.488-108.544z m16.896 118.272c-64 94.72-125.44 81.92-160.768 67.072-44.544-18.944 18.432-119.808 49.152-116.224 26.624 3.072 66.56 6.656 93.696-11.264 16.896-10.752 47.616 16.896 17.92 60.416z" fill="#FFC412" p-id="32230"></path><path d="M934.912 444.928c-48.64 26.112-71.68 35.328-75.264 4.096 0 0-12.8 1.536-16.384 0-4.608-1.536-6.144-5.632-9.728-3.584-47.616 29.184-133.12 160.256-78.848 183.296 15.872 6.656 38.4 15.36 61.44 16.896 23.04 1.024 46.08-5.12 61.952-12.8 2.56-1.024-4.096-7.168 17.408-25.6 24.064-20.992 58.368-47.616 73.728-93.184 13.312-39.424-15.36-79.872-34.304-69.12z m6.656 89.088c-64 94.72-125.44 81.92-160.768 67.072-44.544-18.944 18.432-119.808 49.152-116.224 26.624 3.072 64.512 5.12 93.696-11.264 17.408-9.216 47.616 16.896 17.92 60.416z" fill="#FFAC06" p-id="32231"></path><path d="M382.976 880.64c51.2 15.872 227.328 27.648 327.168 2.56 36.864-9.216 42.496-20.48 47.104-35.328 6.144-19.456-39.936-32.256-73.728-46.592-41.472-16.896-66.56-20.48-99.328-35.328-11.264-5.12-69.12-5.12-77.824-1.024-28.672 13.824-64 22.528-93.184 30.208-44.544 10.752-85.504 23.552-85.504 52.224 0 0 4.608 16.896 55.296 33.28z" fill="#FFD830" p-id="32232"></path><path d="M382.976 880.64c51.2 15.872 227.328 27.648 327.168 2.56 36.864-9.216 42.496-20.48 47.104-35.328 6.144-19.456-39.936-32.256-73.728-46.592-41.472-16.896-66.56-20.48-99.328-35.328-11.264-5.12-69.12-5.12-77.824-1.024-28.672 13.824-64 22.528-93.184 30.208-44.544 10.752-85.504 23.552-85.504 52.224 0 0 4.608 16.896 55.296 33.28z" fill="#F9BE19" p-id="32233"></path><path d="M382.976 880.64c51.2 15.872 227.328 27.648 327.168 2.56 36.864-9.216 42.496-20.48 47.104-35.328 6.144-19.456-39.936-32.256-73.728-46.592-14.336-5.632-39.424-14.336-39.424-14.336s2.56 0.512 1.536 2.56-2.56 3.072-2.56 3.072 85.504 26.624 84.48 45.056c-1.024 18.944-15.872 40.448-186.88 40.96-120.32 0.512-173.056-14.848-194.56-28.16-13.824-8.704-15.36-15.36-15.36-15.36s-3.072 8.192-3.072 12.8c0-0.512 4.608 16.384 55.296 32.768z" fill="#FDAC16" p-id="32234"></path><path d="M382.976 880.64c51.2 15.872 227.328 27.648 327.168 2.56 36.864-9.216 44.544-20.48 47.104-35.328 3.584-19.968-39.936-32.256-73.728-46.592-14.336-5.632-39.424-14.336-39.424-14.336s105.984 34.816 103.936 55.296c-1.536 18.944-33.792 49.664-205.312 50.176-197.12 0.512-215.04-49.664-215.04-45.056 0 0 4.608 16.896 55.296 33.28z" fill="#FB970F" p-id="32235"></path><path d="M643.072 786.944c-20.48-6.656-38.4-11.264-58.88-20.992-11.264-5.12-69.12-5.12-77.824-1.024-18.432 9.216-39.424 15.872-59.904 21.504-11.776 3.072 21.504 17.408 98.304 19.456 77.824 2.048 110.592-15.36 98.304-18.944z" fill="#F9A812" p-id="32236"></path><path d="M601.088 773.12c-5.632-2.048-11.264-4.608-16.896-7.168-11.264-5.12-69.12-5.12-77.824-1.024-5.12 2.56-10.24 4.608-15.872 7.168-1.536 0.512 10.752 10.24 55.808 10.24s56.32-8.704 54.784-9.216z" fill="#FB7701" p-id="32237"></path><path d="M839.168 610.816c-2.048 0.512-4.096 0.512-5.632 0.512-22.016 1.536-35.328-1.024-41.472-5.632-39.424-27.136 6.656-118.272 37.376-118.272 10.24 0 19.968-0.512 33.792 0 1.024 0 0-39.424-3.584-38.912-10.752 1.536-26.624 3.072-39.936 3.072-48.128 0-122.368 162.816-50.688 184.32 10.24 3.072 23.04 6.144 35.328 7.68 1.024 0.512 40.96-33.792 34.816-32.768z" fill="#FC8404" p-id="32238"></path><path d="M313.856 450.048c47.104-4.096 120.832 97.28 121.344 64.512 1.024-68.096 86.016 76.288 66.56 86.016-23.552 11.264-49.664 18.944-75.264 18.944-4.096 0 122.88 62.464 39.424 61.44s-124.416-28.672-133.12-35.84c-32.768-26.624-67.584-50.688-80.896-62.464-5.12-4.608-9.216-6.656-16.896-28.672-7.68-22.016-2.56-90.112-1.536-100.864 1.024-9.728 5.12-9.728 5.12-9.728s44.544 9.216 75.264 6.656z" fill="#FBB035" p-id="32239"></path><path d="M787.456 420.352L307.2 417.792s-20.48 2.048-38.912 10.24-29.184 15.872-29.184 25.088v69.632c0 76.288 56.832 96.256 106.496 137.728 59.392 50.176 95.232 60.416 142.848 104.96 16.384 15.36 99.328 15.872 112.128 2.56 40.96-41.984 92.16-67.072 134.144-89.088 63.488-32.768 122.88-70.144 122.88-156.672 0 0 0.512-64.512 0-67.584-1.536-11.776-6.656-11.776-28.16-21.504-23.04-10.24-41.984-12.8-41.984-12.8z" fill="#FFC412" p-id="32240"></path><path d="M787.456 420.352s29.696 11.776 32.256 31.744c4.608 45.056-8.704 146.944-121.344 197.632-114.176 51.712-347.136 47.104-448.512-92.16-12.8-17.408-9.728-35.328-9.728-35.328s-3.584 33.792 19.456 64.512c24.064 32.768 70.144 57.856 86.528 73.216 57.856 52.224 95.232 60.416 142.848 104.96 16.384 15.36 99.328 15.872 112.128 2.56 40.96-41.984 92.16-67.072 134.144-89.088 63.488-32.768 122.88-70.144 122.88-156.672 0 0 0.512-64.512 0-67.584-0.512-1.536-1.536-7.168-6.144-11.264-3.584-3.072-10.24-4.608-18.432-8.192-23.552-9.728-46.08-14.336-46.08-14.336z" fill="#FDB416" p-id="32241"></path><path d="M544.768 709.12c-154.112-8.704-232.448-84.992-253.952-104.448-47.616-41.984-51.2-82.432-51.2-82.432 0 76.288 56.832 96.256 106.496 137.728 59.392 50.176 95.232 60.416 142.848 104.96 16.384 15.36 99.328 15.872 112.128 2.56 40.96-41.984 92.16-67.072 134.144-89.088 36.864-18.944 86.016-44.544 109.568-93.696 20.992-43.52 13.312-93.696 13.312-130.56 0 0-1.536-9.216-2.56-7.68s-1.024 13.824-2.048 29.184c-1.024 14.336 0.512 51.712-14.336 92.672s-55.296 66.56-62.976 71.168c-107.52 62.976-152.064 74.24-231.424 69.632z" fill="#FB9E0F" p-id="32242"></path><path d="M541.696 761.856c-49.152-3.072-59.904-19.456-89.6-34.816-63.488-32.768-105.984-66.56-105.984-66.56s14.848 13.312 39.936 31.232c18.432 12.8 42.496 27.136 67.584 45.568 10.752 7.68 24.064 19.968 35.328 28.672 8.192 6.144 19.456 10.752 51.712 12.288 26.112 1.024 53.76-2.56 60.416-9.216 40.96-41.984 134.144-89.088 134.144-89.088s-65.024 32.256-98.304 53.248c-39.424 24.064-49.664 31.232-95.232 28.672z" fill="#F98A0A" p-id="32243"></path><path d="M664.064 450.56l-327.68-1.536s-13.824 1.024-26.624 6.144-19.968 9.728-19.968 15.36v41.984c0 46.08 34.304 59.392 81.92 81.92s139.776 33.28 246.784 11.776c46.08-9.216 83.968-38.912 93.184-93.696 0 0 4.096-43.008-15.36-54.784-14.848-8.704-32.256-7.168-32.256-7.168z" fill="#FFCD1F" p-id="32244"></path><path d="M743.424 422.912l31.232-2.048s-37.888-17.92-111.104-35.328c-67.584-16.384-94.208-35.328-94.208-35.328h-40.448s-44.544 33.28-111.616 41.984c-62.976 7.168-110.08 25.6-110.08 25.6l436.224 5.12z" fill="#FFC412" p-id="32245"></path><path d="M743.424 422.912l31.232-2.048s-37.888-17.92-111.104-35.328c-67.584-16.384-94.208-35.328-94.208-35.328h-40.448s-44.544 33.28-111.616 41.984c-62.976 7.168-110.08 25.6-110.08 25.6l436.224 5.12z" fill="#FFBE0F" p-id="32246"></path><path d="M774.656 420.864s-37.888-17.92-111.104-35.328c-67.584-16.384-94.208-35.328-94.208-35.328h-40.448s-44.544 33.28-111.616 41.984c-62.976 7.168-110.08 25.6-110.08 25.6s181.248-37.888 242.176-37.888 225.28 40.96 225.28 40.96z" fill="#FFB80D" p-id="32247"></path><path d="M549.888 241.664c-9.216-0.512-37.888-1.536-39.424 39.936-1.024 26.112 19.456 59.904 19.456 59.904l19.968 8.192s-14.336-37.376-15.36-55.808c-1.024-23.04 15.36-21.504 15.36-21.504s16.384-2.048 15.36 21.504c-1.024 18.432-15.36 55.808-15.36 55.808l19.968-8.192s19.968-34.304 19.456-59.904c-2.048-41.472-30.72-40.448-39.424-39.936z" fill="#F8B62D" p-id="32248"></path><path d="M549.888 241.664c-9.216-0.512-37.888-1.536-39.424 39.936-1.024 26.112 19.456 59.904 19.456 59.904l19.968 8.192s-14.336-37.376-15.36-55.808c-1.024-23.04 15.36-21.504 15.36-21.504s16.384-2.048 15.36 21.504c-1.024 18.432-15.36 55.808-15.36 55.808l19.968-8.192s19.968-34.304 19.456-59.904c-2.048-41.472-30.72-40.448-39.424-39.936z" fill="#FFC412" p-id="32249"></path><path d="M574.976 285.696c1.024-14.336-6.656-23.552-12.288-25.6-25.6-9.728-40.448 1.536-41.472 23.552-0.512 9.216 9.216 27.648 10.752 39.424 1.536 9.216-8.704 6.656-5.632 12.288 2.048 3.584 3.072 6.144 3.072 6.144l19.968 8.192s-14.336-37.376-15.36-55.808c-1.024-23.04 15.36-21.504 15.36-21.504s16.384-2.048 15.36 21.504c-1.024 18.432-15.36 55.808-15.36 55.808l19.968-8.192S589.312 307.2 588.8 281.6c-0.512-15.36-1.536 0-4.608 15.36-2.048 9.728-5.632 17.92-8.192 26.624-4.096 13.824-9.728 5.12-10.24 1.536-1.536-9.728 8.704-28.672 9.216-39.424z" fill="#FFB80C" p-id="32250"></path><path d="M338.432 417.792l-31.232 0.512s48.64 4.608 141.824 7.68c68.608 2.048 147.968 2.048 215.04 0 62.976-2.048 110.08-6.656 110.08-6.656l-435.712-1.536z" fill="#FC8603" p-id="32251"></path><path d="M528.896 337.92h40.448v11.776h-40.448z" fill="#FBB035" p-id="32252"></path><path d="M528.896 337.92h40.448v11.776h-40.448z" fill="#FB9A12" p-id="32253"></path><path d="M549.376 350.72c-16.896 0-20.48-1.536-20.48-1.536h40.448c0 0.512-3.072 1.536-19.968 1.536z" fill="#FC8603" p-id="32254"></path><path d="M571.904 709.632c27.136 24.576 45.568 34.816 45.568 34.816s-19.968 14.336-41.984 16.896c0 0-36.352-13.824-86.528-58.88 0 0 33.28 4.608 43.008 5.632 9.216 0.512 39.936 1.536 39.936 1.536z" fill="#FBA315" p-id="32255"></path><path d="M345.6 420.864l84.48 3.584s-4.608 78.848 46.08 164.864c33.28 56.832 68.608 95.744 95.744 120.32 0 0-23.04-1.024-39.936-1.536s-43.008-5.632-43.008-5.632c-29.696-26.624-64-64.512-98.816-116.224-64-96.256-44.544-165.376-44.544-165.376z" fill="#FFD836" p-id="32256"></path></svg>