<?xml version="1.0" standalone="no"?><!DOCTYPE svg PUBLIC "-//W3C//DTD SVG 1.1//EN" "http://www.w3.org/Graphics/SVG/1.1/DTD/svg11.dtd"><svg t="1603969478346" class="icon" viewBox="0 0 1024 1024" version="1.1" xmlns="http://www.w3.org/2000/svg" p-id="699" xmlns:xlink="http://www.w3.org/1999/xlink" width="200" height="200"><defs><style type="text/css"></style></defs><path d="M652 605.2c7.6 5.2 16 10.4 24.4 15.6 12.4 8 25.2 15.6 36.4 23.6 38 15.2 74.4 30 109.6 45.2 36.4 15.6 72 31.6 108.8 48.4 5.2 2.4 8.8 5.6 10.4 11.6 7.6 32.8 13.2 64.4 17.6 96 4.4 32 7.6 64 8.8 97.2 0.4 9.2-6.8 16.4-16 16.4-94.8 0-165.2 16.8-232.8 33.2-64.8 15.6-127.6 30.8-207.2 30.8s-142.4-15.2-207.2-30.8c-67.6-16.4-137.6-33.2-232.4-33.2h-1.2c-8.8-0.4-15.6-7.6-15.2-16.4 1.2-33.2 4.4-65.2 8.8-97.2 4.4-31.6 10.4-63.2 17.6-95.6 0.8-4.8 4-9.6 9.2-11.6 37.2-17.2 74-33.6 110.4-49.2 35.2-15.2 71.6-30.4 109.6-45.2 11.2-8 23.6-16 36.4-23.6 8.4-5.2 16.8-10.4 24.4-15.6V560c-18.8-24-35.2-50.4-48.8-77.6-6.4 0-12.4-1.6-18-4.8-42.4-24-66.8-81.6-66.8-128.8 0-20.8 14-38.4 33.2-42.8-4-21.2-8.8-28.8-21.2-36 4-35.6 14.4-92 41.2-118-15.6 6-30.8 19.6-45.2 36 9.2-39.2 26.4-70 63.6-80-27.2-4-39.2-4-67.6 11.2C275.6 76.8 292 59.6 354 62.8c80.4-116.8 255.6 12.8 360-38-9.2 18-22.4 28-41.2 33.6 36.4-1.2 64 7.6 106.4-24 1.6 28.8-10.8 76-31.2 98 14.8-5.6 25.2-16.4 32.8-32.8 12.4 101.2-18 146-46 206 2.8-0.4 5.6-0.4 8.4-0.4 24 0 42.4 20 42.4 44 0 47.2-24.4 104.8-66.8 128.8-5.2 2.8-10.4 4.4-15.6 4.8h-2.4c-13.6 27.2-30 53.6-48.8 77.6v44.8z m-140 242c20 0 36 16 36 36s-16 36-36 36-36-16-36-36 16-36 36-36z m0 96.8c20 0 36 16 36 36 0 4-0.8 7.6-1.6 11.2 60.8-3.6 112.4-16 165.2-28.8 65.6-16 133.2-32 223.6-34-1.6-26.4-4-52-7.6-77.6-4-28.4-9.2-56.8-15.6-85.6-33.6-15.6-67.6-30.8-102.4-45.6-32-14-63.6-26.8-94.4-39.2 8.4 13.6 15.6 28 22 42.8 1.2 2.4 1.6 4.8 1.6 7.2 0 25.6-6.8 60-20.8 94.4-11.6 29.2-28.8 58.4-50.4 83.6-6.8 7.6-18.8 7.6-25.2-0.8-28-37.6-49.6-48-72.4-59.2-17.6-8.4-36-17.2-58.4-36.4-22.4 19.2-40.8 28-58.4 36.4-22.8 11.2-44.4 21.2-72.4 59.2-6 8-18 8.4-24.8 1.2-22.4-25.2-39.2-54.8-50.8-84-14-34.4-20.8-68.8-20.8-94.4 0-3.2 0-3.2 1.2-6 6.4-15.2 14-30 22.4-44-30.8 12.4-62 25.6-94.4 39.2-34.8 14.8-68.8 30-102.4 45.6-6.4 28.8-11.6 57.2-15.6 85.6-3.6 25.6-6 51.2-7.6 77.6 90.4 2 158 18 223.6 34 53.2 12.8 104.8 25.2 165.2 28.8-1.2-3.6-1.6-7.2-1.6-11.2 0.8-20 16.8-36 36.8-36z m-140-293.6c-6.8 6.8-13.6 14.4-20 22.8-14 18-26 38.8-35.2 60 0.4 22 6.4 50.4 18.4 79.6 8.4 20.4 19.2 41.2 33.2 59.6 26.8-31.2 48.4-41.6 71.6-52.8 18-8.8 37.2-18 61.2-40.8l1.2-1.2c-48-15.2-130.4-62-130.4-120v-7.2z m149.6 127.2l1.2 1.2c23.6 22.8 42.8 32 61.2 40.8 23.2 11.2 44.8 21.6 71.6 52.8 14-18.8 24.8-39.2 33.2-59.6 11.6-29.2 17.6-57.6 18.4-79.6-9.2-21.6-21.2-42.4-35.2-60-6.4-8.4-13.2-16-20-22.8v7.6c0 57.6-82.4 104.4-130.4 119.6zM512 608c20 0 40.4-2.4 60-15.2 45.2-29.6 81.6-84.4 104.4-132.4 18.8-4.4 31.6-10.4 44.8-25.2 20.4-22.8 32-55.6 32-86 0-10.8-11.6-15.2-22-14.4-4.8 0.4-8.8 2.4-12 5.6-6 15.2-11.2 32.4-15.6 51.2-0.8 8.4-1.6 15.6-3.2 20.8-9.6-25.6-7.2-117.6-8-163.2-164 27.2-266.8-76.8-341.2-49.6 10.8 80-27.6 203.6-30 210.8-4.8-15.6-14.4-50.4-26-75.2-1.2-0.4-2-0.4-3.2-0.8-10.4-1.2-22 3.2-22 14.4 0 30.4 11.6 63.2 32 86 13.2 14.8 26 20.8 44.8 25.2 22.4 48 59.2 103.2 104.4 132.4 20.4 13.2 40.8 15.6 60.8 15.6z m-108-12.8v62.4c0 40.4 75.2 79.2 108 89.6 32.8-10.4 108-49.2 108-89.6v-62.4c-9.6 9.2-20 17.2-30.4 24-25.2 16.4-51.2 20.4-77.6 20.4-26.4 0-52.4-4-77.6-20.4-10.4-6.8-20.8-14.8-30.4-24z m34-189.2c15.6-7.6 29.6-22.8 37.2-46.4 4.4-13.6-2-24.8-13.2-32-9.6-6.4-22.4-10.4-35.6-11.6-13.2-1.2-26.8 0.4-38 5.6-14.8 6.8-25.2 20-22.8 41.2 2 18.8 10 32 20.8 40 15.2 11.2 35.2 11.2 51.6 3.2z m110.8-46.4c7.2 23.6 21.2 38.8 37.2 46.4 16.4 8 36.8 7.6 51.6-3.2 10.8-8 18.8-21.2 20.8-40 2.4-21.2-8-34.4-22.8-41.2-11.2-5.2-24.8-6.8-38-5.6-13.2 1.2-26 5.2-35.6 11.6-11.2 7.2-17.2 18.4-13.2 32z m-49.2-0.4c-0.4 2.4-1.2 4.8-1.6 7.2-9.6 30.4-28.4 50.8-49.6 61.2-24.8 12-54 10.8-76.4-5.6-16-11.6-27.6-30.8-30.4-56.8-3.6-33.6 12.8-54.8 36.8-65.6 14.8-6.8 32.8-9.2 50-7.6 17.2 1.6 34 6.8 46.8 15.6 8.4 5.6 15.2 12.8 19.6 20.8 10.4-5.2 23.2-5.2 34 0 4.4-8 11.2-15.2 19.6-20.8 12.8-8.8 29.6-14 46.8-15.6 17.2-1.6 34.8 0.8 50 7.6 24 10.8 40.4 32 36.8 65.6-2.8 26-14.4 45.2-30.4 56.8-22.4 16.4-51.6 17.6-76.4 5.6-21.2-10.4-40-30.4-49.6-61.2-0.8-2.4-1.2-4.8-1.6-7.2-3.6-15.2-20.8-14.4-24.4 0z m194.4-159.6c-81.2 64.4-215.6-20.8-293.2-44 123.2-9.2 185.6 52 293.2 44z" fill="#3A6287" p-id="700"></path></svg>