<?xml version="1.0" standalone="no"?><!DOCTYPE svg PUBLIC "-//W3C//DTD SVG 1.1//EN" "http://www.w3.org/Graphics/SVG/1.1/DTD/svg11.dtd"><svg t="1603187199964" class="icon" viewBox="0 0 1024 1024" version="1.1" xmlns="http://www.w3.org/2000/svg" p-id="31855" xmlns:xlink="http://www.w3.org/1999/xlink" width="200" height="200"><defs><style type="text/css"></style></defs><path d="M510.404984 0c-281.520249 0-510.404984 228.884735-510.404984 510.404984s228.884735 510.404984 510.404984 510.404985 510.404984-228.884735 510.404985-510.404985-228.884735-510.404984-510.404985-510.404984zM422.679128 795.912773c-7.975078 7.975078-18.342679 11.962617-28.710281 11.962616-10.367601 0-20.735202-3.987539-28.71028-11.962616l-45.457944-45.457944-45.457944 45.457944c-7.975078 7.975078-18.342679 11.962617-28.71028 11.962616-10.367601 0-20.735202-3.987539-28.710281-11.962616-15.950156-15.950156-15.950156-41.470405 0-57.420561l45.457944-45.457944-45.457944-45.457944c-15.950156-15.950156-15.950156-41.470405 0-57.420561s41.470405-15.950156 57.420561 0l45.457944 45.457944 45.457944-45.457944c15.950156-15.950156 41.470405-15.950156 57.420561 0s15.950156 41.470405 0 57.420561l-45.457944 45.457944 45.457944 45.457944c15.950156 15.950156 15.950156 41.470405 0 57.420561z m1.595015-434.641745h-64.598131V425.869159c0 22.330218-18.342679 40.672897-40.672897 40.672897s-39.875389-18.342679-39.875389-40.672897v-64.598131h-64.598131c-22.330218 0-40.672897-18.342679-40.672897-40.672897s18.342679-40.672897 40.672897-40.672897H279.127726v-64.598131c0-22.330218 18.342679-40.672897 40.672897-40.672897s40.672897 18.342679 40.672897 40.672897v64.598131h64.598131c22.330218 0 40.672897 18.342679 40.672897 40.672897-0.797508 23.127726-19.140187 40.672897-41.470405 40.672897z m177.046729-80.548287h209.744549c22.330218 0 40.672897 18.342679 40.672897 40.672898s-18.342679 40.672897-40.672897 40.672897H601.320872c-22.330218 0-40.672897-18.342679-40.672897-40.672897s18.342679-40.672897 40.672897-40.672898z m213.732088 526.355141H604.510903c-22.330218 0-40.672897-18.342679-40.672897-40.672898s18.342679-40.672897 40.672897-40.672897h209.744549c22.330218 0 40.672897 18.342679 40.672897 40.672897s-17.545171 40.672897-39.875389 40.672898z m0-135.576324H604.510903c-22.330218 0-40.672897-18.342679-40.672897-40.672898s18.342679-40.672897 40.672897-40.672897h209.744549c22.330218 0 40.672897 18.342679 40.672897 40.672897s-17.545171 40.672897-39.875389 40.672898z" fill="#5EAE00" p-id="31856"></path></svg>