<?xml version="1.0" standalone="no"?><!DOCTYPE svg PUBLIC "-//W3C//DTD SVG 1.1//EN" "http://www.w3.org/Graphics/SVG/1.1/DTD/svg11.dtd"><svg t="1603186508515" class="icon" viewBox="0 0 1024 1024" version="1.1" xmlns="http://www.w3.org/2000/svg" p-id="20178" xmlns:xlink="http://www.w3.org/1999/xlink" width="200" height="200"><defs><style type="text/css"></style></defs><path d="M768 256h64v64h-64zM704 320h64v64h-64zM640 384h64v64h-64zM576 448h64v64H576zM512 512h64v64H512zM448 576h64v64H448zM384 640h64v64H384zM320 704h64v64H320zM256 768h64v64H256z" fill="#808080" p-id="20179"></path><path d="M224 864m-96 0a96 96 0 1 0 192 0 96 96 0 1 0-192 0Z" fill="#398FE5" p-id="20180"></path><path d="M576 512m-128 0a128 128 0 1 0 256 0 128 128 0 1 0-256 0Z" fill="#E59900" p-id="20181"></path><path d="M832 192h64v64h-64z" fill="#808080" p-id="20182"></path><path d="M928 160m-96 0a96 96 0 1 0 192 0 96 96 0 1 0-192 0Z" fill="#398FE5" p-id="20183"></path></svg>