<?xml version="1.0" standalone="no"?><!DOCTYPE svg PUBLIC "-//W3C//DTD SVG 1.1//EN" "http://www.w3.org/Graphics/SVG/1.1/DTD/svg11.dtd"><svg t="1603163354811" class="icon" viewBox="0 0 1024 1024" version="1.1" xmlns="http://www.w3.org/2000/svg" p-id="4279" data-spm-anchor-id="a313x.7781069.0.i2" xmlns:xlink="http://www.w3.org/1999/xlink" width="200" height="200"><defs><style type="text/css"></style></defs><path d="M816 704v-192h-268.8v-153.6h115.2V128h-268.8v230.4h115.2V512H240v192H163.2v192h192v-192H278.4v-153.6h230.4V704h-76.8v192h192v-192h-76.8v-153.6h230.4V704h-76.8v192h192v-192h-76.8z m-192-537.6V320h-192V166.4h192zM201.6 857.6v-115.2h115.2v115.2H201.6z m268.8 0v-115.2h115.2v115.2h-115.2z m268.8 0v-115.2h115.2v115.2h-115.2z" p-id="4280" fill="#60CDF8"></path></svg>