<?xml version="1.0" encoding="iso-8859-1"?>
<!-- Generator: Adobe Illustrator 23.0.0, SVG Export Plug-In . SVG Version: 6.00 Build 0)  -->
<svg version="1.1" id="&#x56FE;&#x5C42;_1" xmlns="http://www.w3.org/2000/svg" xmlns:xlink="http://www.w3.org/1999/xlink" x="0px"
	 y="0px" viewBox="0 0 500 500" style="enable-background:new 0 0 500 500;" xml:space="preserve">
<g>
	
		<radialGradient id="SVGID_1_" cx="-13202.4678" cy="2102.9172" r="236.6806" gradientTransform="matrix(-0.9627 0.2704 0.2704 0.9627 -13029.9414 1795.0577)" gradientUnits="userSpaceOnUse">
		<stop  offset="0" style="stop-color:#08ACD2"/>
		<stop  offset="1" style="stop-color:#08ACD2;stop-opacity:0"/>
	</radialGradient>
	<circle style="fill:url(#SVGID_1_);" cx="249.343" cy="249.741" r="236.681"/>
	<circle style="fill:#08ACD2;" cx="249.343" cy="249.741" r="177.704"/>
	<g>
		<defs>
			<circle id="SVGID_2_" cx="249.343" cy="249.741" r="177.704"/>
		</defs>
		<clipPath id="SVGID_3_">
			<use xlink:href="#SVGID_2_"  style="overflow:visible;"/>
		</clipPath>
		<g style="clip-path:url(#SVGID_3_);">
			<path style="fill:#11AFCB;" d="M439.792,224.147c0,0-18.734-5.421-47.544-4.452c-28.81,0.969-132.905,40.295-192.965,44.106
				c-60.061,3.811-133.848-11.668-133.848-11.668l0.913,41.289c0,0,95.273,20.129,127.228,17.682
				c31.956-2.446,154.439-29.131,185.739-25.459s56.018,5.04,56.018,5.04L439.792,224.147z"/>
			<g>
				<path style="fill:#43CFD6;" d="M187.571,311.694c-36.163,0.001-120.404-17.704-121.303-17.894l-0.3-0.063l-0.931-42.082
					l0.477,0.1c0.737,0.155,74.428,15.425,133.745,11.661c34.517-2.19,84.466-16.372,124.6-27.767
					c30.101-8.546,56.097-15.927,68.377-16.34c28.539-0.961,47.476,4.413,47.664,4.467l0.299,0.086l-4.505,67.23l-0.382-0.021
					c-0.247-0.014-25.087-1.41-56.041-5.042c-19.695-2.31-76.639,7.614-122.394,15.588c-27.612,4.812-51.459,8.968-63.27,9.872
					C191.792,311.628,189.769,311.694,187.571,311.694z M66.728,293.106c5.928,1.24,96.174,19.957,126.819,17.612
					c11.774-0.902,35.604-5.054,63.197-9.863c45.805-7.983,102.813-17.918,122.617-15.594c28.838,3.384,52.363,4.825,55.613,5.016
					l4.412-65.84c-2.52-0.676-20.664-5.244-47.124-4.355c-12.185,0.41-38.139,7.779-68.191,16.311
					c-40.17,11.405-90.163,25.599-124.762,27.795c-6.518,0.414-13.213,0.598-19.961,0.598
					c-52.182,0.001-107.795-11.013-113.515-12.176L66.728,293.106z"/>
			</g>
		</g>
		<g style="clip-path:url(#SVGID_3_);">
			<path style="fill:#18B2CA;" d="M442.442,263.167c0,0-22.566-8.5-37.796-7.783c-15.23,0.716-171.462,44.595-200.667,46.269
				s-122.5-21.978-140.412-18.134c-17.913,3.844,14.214,50.61,14.214,50.61s55.542,24.071,133.616,28.601
				s194.284-23.36,221.473-13.191S442.442,263.167,442.442,263.167z"/>
			<g>
				<path style="fill:#4AD6DD;" d="M229.94,363.816c-6.372,0-12.578-0.158-18.576-0.506c-40.382-2.343-74.607-10.005-96.208-16.02
					c-23.412-6.519-37.466-12.568-37.605-12.628l-0.153-0.066l-0.094-0.137c-0.98-1.426-23.935-35.065-19.065-47.303
					c0.891-2.238,2.642-3.653,5.207-4.203c9.115-1.956,37.072,3.042,66.67,8.334c29.19,5.219,59.373,10.617,73.831,9.788
					c16.722-0.958,74.335-15.573,125.166-28.467c37.007-9.387,68.967-17.495,75.507-17.802c15.178-0.711,37.801,7.735,38.028,7.82
					l0.307,0.116l0.059,0.323c0.548,3.005,13.264,73.739-1.358,85.973c-2.416,2.021-5.44,2.375-8.987,1.048
					c-13.326-4.983-48.909-0.654-90.111,4.359C306.1,358.878,265.512,363.816,229.94,363.816z M78.165,333.663
					c1.585,0.672,15.293,6.383,37.327,12.517c21.541,5.997,55.671,13.635,95.939,15.972c39.377,2.284,88.047-3.637,130.986-8.861
					c41.353-5.032,77.067-9.377,90.658-4.294c3.171,1.186,5.735,0.908,7.836-0.851c13.621-11.396,1.959-79.228,1.019-84.549
					c-2.755-1.005-23.274-8.292-37.256-7.633c-6.423,0.302-38.33,8.396-75.276,17.768c-50.882,12.907-108.553,27.536-125.385,28.501
					c-14.594,0.835-44.845-4.573-74.102-9.804c-29.481-5.271-57.327-10.251-66.222-8.342c-2.193,0.471-3.623,1.615-4.372,3.497
					C54.823,298.875,76.538,331.263,78.165,333.663z"/>
			</g>
		</g>
		<g style="clip-path:url(#SVGID_3_);">
			<path style="fill:#11AFCB;" d="M361.645,95.938c0,0-102.599,38.312-140.279,39.398s-86.953-20.091-90.525-28.584
				c-3.572-8.493-38.089,39.779-38.089,39.779s54.583,27.402,109.365,28.041s192.216-17.188,201.933-31.194
				C380.613,119.099,361.645,95.938,361.645,95.938z"/>
			<path style="fill:#43CFD6;" d="M205.032,174.976c-0.999,0-1.972-0.005-2.919-0.016c-28.349-0.33-56.62-7.948-75.345-14.28
				c-20.284-6.86-34.052-13.733-34.189-13.802l-0.404-0.203l0.263-0.368c1.219-1.705,29.941-41.749,37.217-40.93
				c0.705,0.079,1.239,0.503,1.543,1.225c1.775,4.22,15.336,11.651,32.246,17.67c20.393,7.259,41.496,11.15,57.912,10.678
				c19.418-0.56,56.484-11.233,84.159-20.088c30.004-9.6,55.739-19.191,55.995-19.287l0.259-0.097l0.175,0.214
				c0.19,0.232,19.228,23.427,42.385,47.417l0.22,0.228l-0.181,0.261c-2.352,3.39-11.831,7.1-28.175,11.028
				c-14.404,3.462-33.822,6.997-56.155,10.223C277.608,170.979,232.024,174.976,205.032,174.976z M93.332,146.386
				c2.417,1.18,15.396,7.377,33.696,13.564c18.668,6.312,46.85,13.906,75.093,14.235c54.296,0.634,190.332-16.943,201.423-30.775
				c-21.891-22.699-40.053-44.624-42.023-47.014c-2.776,1.031-27.359,10.112-55.768,19.202
				c-27.723,8.87-64.867,19.562-84.375,20.125c-16.508,0.478-37.714-3.432-58.194-10.722c-17.372-6.183-30.818-13.626-32.699-18.099
				c-0.197-0.468-0.488-0.709-0.916-0.757C123.963,105.529,101.773,134.621,93.332,146.386z"/>
		</g>
		<g style="clip-path:url(#SVGID_3_);">
			<path style="fill:#11AFCB;" d="M351.033,64.495c0,0-37.489,46.14-120.327,53.381S131.07,90.663,131.07,90.663l98.971-34.325
				L351.033,64.495z"/>
			<path style="fill:#43CFD6;" d="M208.849,119.259c-10.354,0-19.962-0.734-28.722-2.199c-11.741-1.964-21.997-5.238-30.484-9.733
				c-14.499-7.679-18.747-16.138-18.921-16.494l-0.191-0.392l0.412-0.143l99.045-34.351l121.816,8.213l-0.471,0.579
				c-3.256,4.007-13.547,14.191-29.194,24.058c-18.035,11.373-48.532,25.716-91.4,29.464
				C223.126,118.926,215.818,119.259,208.849,119.259z M131.62,90.882c1.732,3.16,7.482,10.003,18.46,15.8
				c13.231,6.988,37.953,14.536,80.593,10.808c42.714-3.734,73.092-18.02,91.055-29.348c16.969-10.7,26.336-20.829,28.511-23.314
				l-120.145-8.1L131.62,90.882z"/>
		</g>
	</g>
	<path style="opacity:0.5;fill:#0C88B0;" d="M201.293,78.656c10.727-3.013,21.5-4.963,32.21-5.933
		c-68.935,34.967-105.245,117.812-82.525,198.709c25.653,91.337,116.845,145.628,203.793,121.404
		c-16.806,12.387-36.087,22.01-57.378,27.99c-94.488,26.538-192.598-28.547-219.135-123.034S106.805,105.194,201.293,78.656z"/>
	<path style="opacity:0.5;fill:#4ACFDD;" d="M71.643,253.708c0.002,0.099,0.007,0.198,0.01,0.296
		c-22.138,13.72-33.934,26.235-31.345,35.454c6.57,23.394,103.272,16.695,215.988-14.962s198.765-76.285,192.195-99.679
		c-2.589-9.218-19.176-13.762-45.22-13.95c-0.049-0.086-0.096-0.173-0.146-0.258c51.635-1.599,86.674,7.025,92.013,26.034
		c10.154,36.154-90.968,96.176-225.864,134.063S16.793,359.996,6.639,323.842C1.3,304.833,26.725,279.226,71.643,253.708z"/>
</g>
</svg>
