<?xml version="1.0" standalone="no"?><!DOCTYPE svg PUBLIC "-//W3C//DTD SVG 1.1//EN" "http://www.w3.org/Graphics/SVG/1.1/DTD/svg11.dtd"><svg t="1603186334950" class="icon" viewBox="0 0 1024 1024" version="1.1" xmlns="http://www.w3.org/2000/svg" p-id="14543" xmlns:xlink="http://www.w3.org/1999/xlink" width="200" height="200"><defs><style type="text/css"></style></defs><path d="M328.8 162c-77.1 36.7-138.2 100.1-172.1 178.4-7 16.2 0.5 35.1 16.7 42.1 4.1 1.8 8.4 2.6 12.7 2.6 12.4 0 24.2-7.2 29.4-19.3 27.7-64.1 77.7-116 140.8-146 16-7.6 22.7-26.7 15.1-42.6C363.9 161.2 344.8 154.4 328.8 162z" p-id="14544" fill="#d4237a"></path><path d="M832 480c0-17.7-14.3-32-32-32s-32 14.3-32 32c0 158.8-129.2 288-288 288-17.7 0-32 14.3-32 32s14.3 32 32 32c47.5 0 93.6-9.3 137-27.7 41.9-17.7 79.6-43.1 111.9-75.4 32.3-32.3 57.7-70 75.4-111.9C822.7 573.6 832 527.5 832 480z" p-id="14545" fill="#d4237a"></path><path d="M1014.2 967.9L841.8 795.4C915.4 711.1 960 600.7 960 480 960 214.9 745.1 0 480 0S0 214.9 0 480s214.9 480 480 480c121.3 0 232.1-45 316.6-119.2L969 1013.1c6.2 6.2 14.4 9.4 22.6 9.4s16.4-3.1 22.6-9.4C1026.7 1000.6 1026.7 980.4 1014.2 967.9zM480 896c-56.2 0-110.7-11-161.9-32.7-49.5-20.9-94-51-132.3-89.2s-68.2-82.7-89.2-132.3C75 590.7 64 536.2 64 480s11-110.7 32.7-161.9c20.9-49.5 51-94 89.2-132.2s82.7-68.2 132.3-89.2C369.3 75 423.8 64 480 64c56.2 0 110.7 11 161.9 32.7 49.5 20.9 94 51 132.3 89.2s68.2 82.7 89.2 132.2C885 369.3 896 423.8 896 480s-11 110.7-32.7 161.9c-20.9 49.5-51 94-89.2 132.3s-82.7 68.2-132.3 89.2C590.7 885 536.2 896 480 896z" p-id="14546" fill="#d4237a"></path></svg>