<?xml version="1.0" standalone="no"?><!DOCTYPE svg PUBLIC "-//W3C//DTD SVG 1.1//EN" "http://www.w3.org/Graphics/SVG/1.1/DTD/svg11.dtd"><svg t="1603187321621" class="icon" viewBox="0 0 1365 1024" version="1.1" xmlns="http://www.w3.org/2000/svg" p-id="34412" xmlns:xlink="http://www.w3.org/1999/xlink" width="266.6015625" height="200"><defs><style type="text/css"></style></defs><path d="M550.376214 374.09054671m-35.29804181 0a35.29804179 35.29804179 0 1 0 70.59608777 0 35.29804179 35.29804179 0 1 0-70.59608777 0Z" fill="#0e9feb" p-id="34413"></path><path d="M653.33354766 596.65882805m-35.2980418 0a35.29804179 35.29804179 0 1 0 70.59608357 0 35.29804179 35.29804179 0 1 0-70.59608357 0Z" fill="#0e9feb" p-id="34414"></path><path d="M653.33354766 819.24122727m-35.2980418 0a35.29804179 35.29804179 0 1 0 70.59608357 0 35.29804179 35.29804179 0 1 0-70.59608357 0Z" fill="#0e9feb" p-id="34415"></path><path d="M859.23409303 596.65882805m-35.29804177 0a35.29804179 35.29804179 0 1 0 70.59608359 0 35.29804179 35.29804179 0 1 0-70.59608359 0Z" fill="#0e9feb" p-id="34416"></path><path d="M756.28382039 374.09054671m-35.29804182 0a35.29804179 35.29804179 0 1 0 70.59608354 0 35.29804179 35.29804179 0 1 0-70.59608354 0Z" fill="#0e9feb" p-id="34417"></path><path d="M447.4259413 596.65882805m-35.29804183 0a35.29804179 35.29804179 0 1 0 70.5960878 0 35.29804179 35.29804179 0 1 0-70.5960878 0Z" fill="#0e9feb" p-id="34418"></path><path d="M550.376214 390.91359137l98.02972824 211.92239291 4.92760542-2.28025225 4.92760546 2.28025225 98.02266727-211.92239291 98.02266723 211.92239291 12.82024649-5.92301029-105.91530832-228.98546557-1.39780246 0.64242163v-1.5389933H546.84641107v1.5389933l-1.39780247-0.64242163-105.91530837 228.98546557 12.82025065 5.92301029 98.02266312-211.92239291z m194.86637709-9.76343869l-91.90904343 198.69268768-91.91610439-198.69268768h183.82514782zM660.3931577 774.27857991v-149.75547788h-14.11922004v149.75547788l-197.09721065-161.50266536-8.9586433 10.92121318 206.2535244 169.00703072 0.27532473 2.0825859h2.2731953l2.58381677 2.10376066 1.7084239-2.10376066 1.75078165 2.10376066 2.71088967-2.20259792 2.61911757-0.2894426v-1.85667572l206.05585396-168.84466104-8.96570022-10.92121318z" fill="#0e9feb" p-id="34419"></path><path d="M985.69286245 1018.68929173h-664.71862958l-205.41343234-632.18089614 537.77274713-390.70698019 537.77274713 390.70698019-205.41343234 632.18089614z m-654.46807781-14.11921999h644.20340829l199.06684143-612.68225437-521.16854768-378.64210622-521.16854766 378.64210622 199.06684562 612.68225437z" fill="#0e9feb" p-id="34420"></path></svg>