<?xml version="1.0" standalone="no"?><!DOCTYPE svg PUBLIC "-//W3C//DTD SVG 1.1//EN" "http://www.w3.org/Graphics/SVG/1.1/DTD/svg11.dtd"><svg t="1602466671271" class="icon" viewBox="0 0 1029 1024" version="1.1" xmlns="http://www.w3.org/2000/svg" p-id="1799" xmlns:xlink="http://www.w3.org/1999/xlink" width="200.9765625" height="200"><defs><style type="text/css"></style></defs><path d="M463.60199 5.094527h101.890547c5.60398 1.528358 11.20796 4.075622 16.811941 5.094528 211.932338 29.548259 381.5801 185.440796 427.940298 394.316418 5.60398 25.98209 9.170149 52.983085 13.755224 79.474627v81.512437c-1.528358 4.075622-3.566169 7.641791-4.075622 11.717413-31.076617 216.517413-176.7801 378.523383-387.693532 432.015921-21.906468 5.60398-44.322388 9.679602-66.228856 14.774129h-101.890547c-5.60398-1.528358-11.20796-4.075622-16.811941-4.585075-197.667662-31.58607-334.200995-141.118408-408.581094-326.049751-16.302488-40.246766-22.41592-85.078607-33.114428-127.363184v-112.079602c1.528358-3.566169 3.566169-7.641791 4.585075-11.717413C50.435821 221.61194 179.327363 81.002985 394.825871 20.378109c22.41592-6.622886 45.850746-10.189055 68.776119-15.283582z m-25.98209 586.3801c-6.113433-6.622886-9.679602-11.20796-13.755223-15.793035-24.453731-25.98209-48.39801-52.473632-73.361194-77.946269-13.755224-13.755224-30.567164-15.793035-45.341294-2.037811-15.283582 13.755224-13.755224 30.057711-0.509453 44.831841l106.985075 119.211941c11.20796 12.226866 20.887562 15.793035 35.661691 2.547263 77.946269-69.285572 156.40199-137.552239 234.857712-206.328358 14.264677-12.226866 28.529353-24.453731 41.775124-37.19005 12.226866-12.226866 14.264677-27.510448 2.547264-41.265671-12.226866-14.264677-27.510448-15.793035-43.303483-5.094528-9.679602 6.622886-18.340299 15.283582-27.000995 22.925373-71.832836 64.700498-143.665672 128.891542-218.555224 196.139304z" p-id="1800" data-spm-anchor-id="a313x.7781069.0.i2" class="selected" fill="#dbdbdb"></path><path d="M1024 483.9801c-4.585075-26.491542-8.151244-52.983085-13.755224-79.474627-46.360199-208.875622-216.00796-364.768159-427.940298-394.316418-5.60398-1.018905-11.20796-3.056716-16.811941-5.094528h458.507463v478.885573zM565.492537 1024c21.906468-5.094527 44.322388-9.170149 66.228856-14.774129 211.422886-53.492537 356.616915-216.00796 387.693532-432.015921 0.509453-4.075622 3.056716-7.641791 4.075622-11.717413v458.507463H565.492537zM5.094527 565.492537c10.698507 42.79403 16.81194 87.116418 33.114428 127.363184 74.3801 184.931343 210.913433 294.463682 408.581095 326.049752 5.60398 1.018905 11.20796 3.056716 16.81194 4.585074H5.094527V565.492537zM463.60199 5.094527c-22.925373 5.094527-46.360199 8.660697-68.776119 15.283582C179.327363 81.002985 50.435821 221.61194 9.679602 441.695522c-1.018905 4.075622-3.056716 8.151244-4.585075 11.717413V5.094527h458.507463zM437.6199 591.474627c74.889552-66.738308 146.722388-131.438806 218.555224-195.629851 8.660697-8.151244 17.321393-16.302488 27.000995-22.925373 15.283582-10.698507 31.076617-9.170149 43.303483 5.094527 11.717413 13.755224 9.679602 29.038806-2.547264 41.265672-13.245771 13.245771-27.510448 24.963184-41.775124 37.19005-78.455721 68.776119-157.420896 137.042786-234.857712 206.328358-14.774129 13.245771-24.453731 9.679602-35.661691-2.547264l-106.985075-119.21194c-13.245771-14.774129-14.264677-31.076617 0.509453-44.831841 14.774129-13.755224 31.58607-11.717413 45.341294 2.037811 24.963184 25.472637 48.907463 51.964179 73.361194 77.946269 4.075622 3.566169 8.151244 8.151244 13.755223 15.283582z" fill="#ffffff" p-id="1801" data-spm-anchor-id="a313x.7781069.0.i4" class=""></path></svg>