<?xml version="1.0" standalone="no"?><!DOCTYPE svg PUBLIC "-//W3C//DTD SVG 1.1//EN" "http://www.w3.org/Graphics/SVG/1.1/DTD/svg11.dtd"><svg t="1603186824154" class="icon" viewBox="0 0 1024 1024" version="1.1" xmlns="http://www.w3.org/2000/svg" p-id="26603" xmlns:xlink="http://www.w3.org/1999/xlink" width="200" height="200"><defs><style type="text/css"></style></defs><path d="M381.830508 133.062147a133.062147 130.892655 90 1 0 261.785311 0 133.062147 130.892655 90 1 0-261.785311 0Z" fill="#B0C9F3" p-id="26604"></path><path d="M143.186441 512m-72.316385 0a72.316384 72.316384 0 1 0 144.632769 0 72.316384 72.316384 0 1 0-144.632769 0Z" fill="#B0C9F3" p-id="26605"></path><path d="M512 512m-72.316384 0a72.316384 72.316384 0 1 0 144.632768 0 72.316384 72.316384 0 1 0-144.632768 0Z" fill="#B0C9F3" p-id="26606"></path><path d="M880.813559 512m-72.316384 0a72.316384 72.316384 0 1 0 144.632769 0 72.316384 72.316384 0 1 0-144.632769 0Z" fill="#B0C9F3" p-id="26607"></path><path d="M381.830508 890.937853a133.062147 130.892655 90 1 0 261.785311 0 133.062147 130.892655 90 1 0-261.785311 0Z" fill="#B0C9F3" p-id="26608"></path></svg>