<?xml version="1.0" standalone="no"?><!DOCTYPE svg PUBLIC "-//W3C//DTD SVG 1.1//EN" "http://www.w3.org/Graphics/SVG/1.1/DTD/svg11.dtd"><svg t="1603187605251" class="icon" viewBox="0 0 1075 1024" version="1.1" xmlns="http://www.w3.org/2000/svg" p-id="40788" xmlns:xlink="http://www.w3.org/1999/xlink" width="209.9609375" height="200"><defs><style type="text/css"></style></defs><path d="M352.473158 182.920474C352.473158 81.980019 434.589583 0 535.393633 0c100.940456 0 183.05688 82.116425 183.05688 182.920474 0 100.940456-82.116425 182.920474-183.05688 182.920474-100.80405 0-182.920474-81.980019-182.920475-182.920474z m328.192887 0a145.272412 145.272412 0 1 0-145.272412 145.272413A145.47975 145.47975 0 0 0 680.666045 182.920474zM0 841.079526c0-100.940456 82.116425-182.920474 183.05688-182.920474s182.920474 82.116425 182.920474 182.920474c0 100.940456-82.116425 182.920474-182.920474 182.920474C82.116425 1024 0 941.883575 0 841.079526z m328.192887 0a145.272412 145.272412 0 1 0-145.272413 145.272412c80.070334-0.136406 145.272412-65.202078 145.272413-145.272412z" fill="#3259CE" p-id="40789"></path><path d="M635.395615 324.291674l202.494738 350.721706-32.721076 18.892233-202.494739-350.720341z m-176.91861 15.801274l-202.494738 350.720341-32.721076-18.892234 202.490646-350.720341zM904.781138 1023.454376a5.281641 5.281641 0 0 0 3.41015-1.227654 18.687625 18.687625 0 0 0-6.001865-36.420408c-0.818436 0-1.500466 0.409218-2.318902 0.409218-0.136406 0-0.136406-0.409218-0.272812-0.409218a66.647982 66.647982 0 0 1-7.365925 0.409218 145.272412 145.272412 0 1 1 145.272412-145.272412 152.878412 152.878412 0 0 1-6.683895 42.013054c0 0.136406 0.136406 0.272812 0.136406 0.545624a19.763868 19.763868 0 0 0-0.954842 4.774211 18.862225 18.862225 0 0 0 18.824031 18.824031 18.438002 18.438002 0 0 0 17.596377-12.68576 2.864526 2.864526 0 0 0 0.68203-0.954842 176.372985 176.372985 0 0 0 8.047955-52.652724c0-100.940456-82.116425-182.920474-182.920474-182.920474S709.311309 740.13907 709.311309 841.079526s82.116425 182.920474 182.920475 182.920474c4.228587 0 8.457173-0.136406 12.549354-0.545624z" fill="#3259CE" p-id="40790"></path><path d="M907.934845 586.378111l-31.217882 13.250481 7.094477 14.442669 29.576918-12.55481z" fill="#8FB3FF" p-id="40791"></path><path d="M891.559302 540.976731l-36.120314 15.332037 14.186226 28.882611 32.849298-13.943424z" fill="#2868F0" p-id="40792"></path><path d="M756.398668 272.768392l-53.218809 121.322243 59.970907-25.456091 85.193744 173.231554 37.794017-16.041348-65.465342-181.606884 59.970907-25.456092z" fill="#2C66E1" p-id="40793"></path><path d="M187.769708 599.917773l-31.23425-13.26003-5.463062 15.143797 29.591923 12.562994z" fill="#8FB3FF" p-id="40794"></path><path d="M209.069508 556.577488l-36.140775-15.344314-10.930214 30.286229 32.865666 13.952972z" fill="#2868F0" p-id="40795"></path><path d="M308.182123 272.884337l-124.313627 46.013843 60.002281 25.473825-65.478983 181.717373 37.815842 16.054989 85.216933-173.339316 60.003645 25.473825z" fill="#2C66E1" p-id="40796"></path></svg>