<?xml version="1.0" standalone="no"?><!DOCTYPE svg PUBLIC "-//W3C//DTD SVG 1.1//EN" "http://www.w3.org/Graphics/SVG/1.1/DTD/svg11.dtd"><svg t="1603187496711" class="icon" viewBox="0 0 1024 1024" version="1.1" xmlns="http://www.w3.org/2000/svg" p-id="39009" xmlns:xlink="http://www.w3.org/1999/xlink" width="200" height="200"><defs><style type="text/css"></style></defs><path d="M716.2 927.1c-37.3 0-67.9-12.7-93.5-38.9L512.2 777.1c-25.6-25.6-38-56.1-38-93.2 0-38.1 13.3-69.5 40.5-96.2l16-15.6-78.8-78.8-15.6 16c-26.6 27.3-57.9 40.5-95.6 40.5-37.1 0-67.7-12.6-93.7-38.5L135.5 399.8C109.6 373.9 97 343.2 97 306.1c0-37 12.7-67.4 38.9-92.9l78.9-78.4c25.6-25.6 56.1-38 93.2-38 37.3 0 67.9 12.7 93.5 38.9L512 246.8c25.6 25.6 38 56.1 38 93.2 0 38.1-13.3 69.5-40.5 96.2l-16 15.6 78.8 78.8 15.6-16c26.6-27.3 57.9-40.5 95.6-40.5 37.1 0 67.7 12.6 93.7 38.5L888.6 624c25.9 25.9 38.5 56.6 38.5 93.7 0 37-12.7 67.4-38.9 93L809.4 889c-25.6 25.6-56.1 38.1-93.2 38.1zM556.8 628.7c-16.4 15.4-24.7 33.9-24.7 55.2 0 20.3 7.2 37.8 21.5 52.1L664 846.9c13.9 13.9 31.5 21 52.1 21 20 0 37.3-6.7 51.5-19.8l0.3-0.3 79-78.5c8.7-8.7 14.8-18.6 18.2-29.4h3.5v-22.1c0-20.3-7.2-37.8-21.5-52.1L735.5 554.2c-14.3-14.3-31.8-21.5-52.1-21.5-21.3 0-39.7 8.1-54.7 24.1L614 572.4l15.2 15.2c1.1 1.1 4.5 4.5 10.3 10.1 6.8 6.6 9.6 9.5 10.8 10.8 0.5 0.5 2.3 2.6 6.3 8 1.9 2.6 3.1 4.9 3.7 6.8 0.7 2.3 1 5.2 1 8.4v0.1c0 8.5-2.6 14.9-8.5 20.8-5.8 5.8-12.4 8.5-20.8 8.5-3.3 0-6.3-0.4-8.9-1.1-1.8-0.5-3.9-1.7-6.3-3.4-5.1-3.8-7.5-5.8-8.6-6.8-1-0.9-3.6-3.4-10.3-10.3-7.7-8-9.8-10.1-10.9-11.1l-15.1-13.9-15.1 14.2zM307.9 155.4c-19.7 0-37 6.9-51.5 20.4l-0.3 0.2-79 78.5c-14.3 14.3-21.6 31.6-21.6 51.6 0 20.3 7.2 37.8 21.5 52.1l111.5 111.5c13.9 13.9 31.4 21 52.1 21 21.1 0 39.5-7.8 54.5-23.3l15.2-15.6-15.4-15.4c-1.2-1.2-4.6-4.6-10.3-10.1-6.7-6.6-9.6-9.5-10.8-10.8-0.5-0.5-2.3-2.6-6.3-8-1.9-2.6-3.1-4.9-3.7-6.8-0.7-2.4-1-5.2-1-8.4v-0.2c0-8.4 2.7-15 8.5-20.8 5.8-5.8 12.4-8.5 20.8-8.5 3.3 0 6.3 0.4 8.9 1.1 1.8 0.5 3.9 1.7 6.3 3.4 5.1 3.8 7.5 5.8 8.6 6.8 1 0.9 3.6 3.4 10.3 10.3 7.3 7.6 9.7 9.9 11 11.1l15.1 13.9 15-14c16.4-15.4 26.5-33.6 26.5-54.9 0 0 1.1-9.9-1.8-22.5-0.8-4.1-12.9-21.2-21.6-29.9L360 177c-14.3-14.3-31.8-21.6-52.1-21.6z" p-id="39010" fill="#4e8a33"></path></svg>