<?xml version="1.0" standalone="no"?><!DOCTYPE svg PUBLIC "-//W3C//DTD SVG 1.1//EN" "http://www.w3.org/Graphics/SVG/1.1/DTD/svg11.dtd"><svg t="1603186387415" class="icon" viewBox="0 0 1560 1024" version="1.1" xmlns="http://www.w3.org/2000/svg" p-id="14885" xmlns:xlink="http://www.w3.org/1999/xlink" width="304.6875" height="200"><defs><style type="text/css"></style></defs><path d="M1456.583111 92.355048l12.548064 10.337523-682.666667 828.952381-12.548064-10.337523z" fill="#1afa29" p-id="14886"></path><path d="M788.31746 97.52381v828.95238h-16.253968V97.52381z" fill="#1afa29" p-id="14887"></path><path d="M103.797841 92.355048l682.666667 828.952381-12.548064 10.337523-682.666666-828.952381z" fill="#1afa29" p-id="14888"></path><path d="M780.190476 926.47619m-97.523809 0a97.52381 97.52381 0 1 0 195.047619 0 97.52381 97.52381 0 1 0-195.047619 0Z" fill="#1afa29" p-id="14889"></path><path d="M1462.857143 97.52381m-97.52381 0a97.52381 97.52381 0 1 0 195.047619 0 97.52381 97.52381 0 1 0-195.047619 0Z" fill="#1afa29" p-id="14890"></path><path d="M97.52381 97.52381m-97.52381 0a97.52381 97.52381 0 1 0 195.047619 0 97.52381 97.52381 0 1 0-195.047619 0Z" fill="#1afa29" p-id="14891"></path><path d="M780.190476 97.52381m-97.523809 0a97.52381 97.52381 0 1 0 195.047619 0 97.52381 97.52381 0 1 0-195.047619 0Z" fill="#1afa29" p-id="14892"></path></svg>