<?xml version="1.0" standalone="no"?><!DOCTYPE svg PUBLIC "-//W3C//DTD SVG 1.1//EN" "http://www.w3.org/Graphics/SVG/1.1/DTD/svg11.dtd"><svg t="1603186977735" class="icon" viewBox="0 0 2650 1024" version="1.1" xmlns="http://www.w3.org/2000/svg" p-id="28856" xmlns:xlink="http://www.w3.org/1999/xlink" width="517.578125" height="200"><defs><style type="text/css"></style></defs><path d="M2544.941176 150.588235L1487.811765 605.364706 1406.494118 265.035294 2544.941176 150.588235z" p-id="28857"></path><path d="M352.376471 716.8l1057.129411-451.764706 81.317647 340.329412-1138.447058 111.435294z" fill="#A80601" p-id="28858"></path><path d="M1439.623529 436.705882m-271.058823 0a271.058824 271.058824 0 1 0 542.117647 0 271.058824 271.058824 0 1 0-542.117647 0Z" fill="#008CC1" p-id="28859"></path><path d="M1439.623529 436.705882m-174.682353 0a174.682353 174.682353 0 1 0 349.364706 0 174.682353 174.682353 0 1 0-349.364706 0Z" fill="#757575" p-id="28860"></path><path d="M1361.317647 457.788235c-12.047059-42.164706 12.047059-87.341176 57.223529-99.388235 42.164706-12.047059 87.341176 12.047059 99.388236 57.223529 12.047059 42.164706-12.047059 87.341176-57.22353 99.388236-45.176471 12.047059-90.352941-15.058824-99.388235-57.22353z" fill="#444444" p-id="28861"></path></svg>