<?xml version="1.0" standalone="no"?><!DOCTYPE svg PUBLIC "-//W3C//DTD SVG 1.1//EN" "http://www.w3.org/Graphics/SVG/1.1/DTD/svg11.dtd"><svg t="1603186629164" class="icon" viewBox="0 0 1024 1024" version="1.1" xmlns="http://www.w3.org/2000/svg" p-id="23821" xmlns:xlink="http://www.w3.org/1999/xlink" width="200" height="200"><defs><style type="text/css"></style></defs><path d="M885.418667 102.4H138.786133A70.5536 70.5536 0 0 0 68.266667 172.919467V728.746667a70.5536 70.5536 0 0 0 70.519466 70.519466h269.960534v126.702934h-93.525334a27.477333 27.477333 0 0 0-27.5456 27.5456v2.491733a27.477333 27.477333 0 0 0 27.5456 27.5456h393.557334a27.477333 27.477333 0 0 0 27.5456-27.5456v-2.491733a27.477333 27.477333 0 0 0-27.5456-27.5456h-93.422934v-126.702934h269.824A70.5536 70.5536 0 0 0 955.733333 728.746667V172.919467A70.382933 70.382933 0 0 0 885.418667 102.4zM138.786133 155.886933h746.496a17.066667 17.066667 0 0 1 17.066667 17.066667V550.229333H121.7536V172.919467a17.066667 17.066667 0 0 1 17.032533-17.032534z m423.082667 770.082134h-99.669333v-126.702934h99.669333v126.702934z m323.413333-180.189867H138.786133a17.066667 17.066667 0 0 1-17.066666-17.066667V607.573333h780.629333v121.173334a17.066667 17.066667 0 0 1-17.066667 17.066666z" fill="#0074FF" p-id="23822"></path><path d="M468.48 672.802133a43.588267 43.588267 0 1 0 43.588267-43.588266 43.588267 43.588267 0 0 0-43.588267 43.588266z" fill="#FFE10B" p-id="23823"></path><path d="M349.764267 443.733333V273.6128h-33.211734v69.5296H258.9696V273.6128h-33.211733V443.733333h33.211733v-71.202133h57.582933V443.733333z m163.84 0l-61.917867-170.120533h-26.180267L363.6224 443.733333h34.645333l10.24-30.1056h60.484267l10.001067 30.1056z m-53.4528-58.026666h-42.2912l21.504-61.883734z m177.288533 7.8848a47.786667 47.786667 0 0 0-13.141333-36.078934 56.251733 56.251733 0 0 0-32.494934-13.141333L571.733333 341.333333a29.252267 29.252267 0 0 1-15.7696-6.826666 16.418133 16.418133 0 0 1-5.0176-12.1856c0-11.707733 8.6016-21.504 26.282667-21.504a47.342933 47.342933 0 0 1 34.884267 11.707733l21.026133-20.7872a72.874667 72.874667 0 0 0-54.954667-19.831467 52.394667 52.394667 0 0 0-59.255466 51.882667 44.9536 44.9536 0 0 0 12.1856 33.450667 57.685333 57.685333 0 0 0 32.9728 14.097066l20.48 2.8672a25.326933 25.326933 0 0 1 15.0528 5.973334 18.944 18.944 0 0 1 5.256533 14.336c0 13.653333-10.513067 21.026133-30.1056 21.026133a55.671467 55.671467 0 0 1-40.96-14.336l-21.504 21.504a79.906133 79.906133 0 0 0 62.122667 22.459733c35.5328 0 63.010133-18.500267 63.010133-51.6096zM785.578667 443.733333V273.6128h-33.211734v69.5296h-57.582933V273.6128h-33.211733V443.733333h33.211733v-71.202133h57.582933V443.733333z" fill="#DF5C05" p-id="23824"></path></svg>