<?xml version="1.0" standalone="no"?><!DOCTYPE svg PUBLIC "-//W3C//DTD SVG 1.1//EN" "http://www.w3.org/Graphics/SVG/1.1/DTD/svg11.dtd"><svg t="1603187692280" class="icon" viewBox="0 0 1024 1024" version="1.1" xmlns="http://www.w3.org/2000/svg" p-id="42211" xmlns:xlink="http://www.w3.org/1999/xlink" width="200" height="200"><defs><style type="text/css"></style></defs><path d="M128 230.4h768v588.8H128z" fill="#EDEDED" p-id="42212"></path><path d="M128 256c-21.208 0-38.4-17.192-38.4-38.4s17.192-38.4 38.4-38.4h768c21.208 0 38.4 17.192 38.4 38.4S917.208 256 896 256H128zM128 870.4c-21.208 0-38.4-17.192-38.4-38.4s17.192-38.4 38.4-38.4h768c21.208 0 38.4 17.192 38.4 38.4s-17.192 38.4-38.4 38.4H128z" fill="#706F6F" p-id="42213"></path><path d="M266.7 369.68v98.584c12.317-12.609 24.873-22.262 37.669-28.96 12.796-6.699 28.63-10.048 47.505-10.048 21.753 0 40.827 5.083 57.222 15.248 16.395 10.166 29.111 24.902 38.148 44.21 9.037 19.307 13.556 42.199 13.556 68.677 0 19.543-2.52 37.471-7.558 53.784-5.038 16.312-12.356 30.457-21.953 42.436-9.597 11.978-21.233 21.237-34.909 27.778-13.676 6.54-28.75 9.811-45.226 9.811-10.077 0-19.554-1.182-28.43-3.546-8.878-2.364-16.436-5.477-22.674-9.338-6.238-3.862-11.556-7.841-15.955-11.94-4.398-4.097-10.197-10.244-17.394-18.44v6.384c0 12.136-2.96 21.316-8.878 27.542-5.918 6.225-13.435 9.338-22.553 9.338-9.277 0-16.674-3.113-22.193-9.338-5.518-6.226-8.277-15.406-8.277-27.542V372.517c0-13.081 2.68-22.971 8.037-29.67 5.359-6.698 12.836-10.047 22.433-10.047 10.077 0 17.835 3.192 23.273 9.575 5.439 6.383 8.158 15.485 8.158 27.305z m14.9 195.62c0 24.016 6.09 42.47 18.268 55.362C312.048 633.554 328.026 640 347.807 640c16.838 0 31.346-6.593 43.525-19.78 12.179-13.187 18.268-32.083 18.268-56.688 0-15.913-2.534-29.615-7.602-41.108-5.067-11.492-12.26-20.37-21.578-26.631-9.318-6.262-20.189-9.393-32.613-9.393-12.751 0-24.112 3.13-34.084 9.393-9.972 6.262-17.819 15.323-23.54 27.184-5.722 11.86-8.583 25.968-8.583 42.323z m307.2-94.352v181.967c0 12.608-3.657 22.14-10.971 28.599-7.315 6.457-16.598 9.686-27.851 9.686s-20.396-3.306-27.429-9.917C515.516 674.67 512 665.216 512 652.915V472.793c0-12.454 3.516-21.833 10.55-28.137 7.032-6.304 16.175-9.456 27.428-9.456s20.536 3.152 27.85 9.456c7.315 6.304 10.972 15.068 10.972 26.292zM550.822 409.6c-10.69 0-19.833-2.237-27.429-6.712-7.595-4.474-11.393-10.802-11.393-18.984 0-7.415 3.892-13.519 11.675-18.313 7.783-4.794 16.832-7.191 27.147-7.191 9.94 0 18.755 2.173 26.444 6.52 7.69 4.346 11.534 10.674 11.534 18.984 0 8.054-3.75 14.35-11.253 18.889-7.502 4.538-16.41 6.807-26.725 6.807z m120.058 18.79h7.294v-39.688c0-10.648 0.284-18.997 0.851-25.047 0.568-6.05 2.148-11.253 4.742-15.61 2.593-4.516 6.321-8.187 11.184-11.01 4.863-2.823 10.294-4.235 16.291-4.235 8.43 0 16.048 3.146 22.856 9.438 4.539 4.195 7.416 9.317 8.632 15.367 1.216 6.05 1.824 14.64 1.824 25.773v45.011h24.314c9.402 0 16.575 2.219 21.519 6.655 4.944 4.437 7.416 10.124 7.416 17.061 0 8.874-3.526 15.085-10.577 18.634-7.051 3.55-17.142 5.324-30.272 5.324h-12.4v121.484c0 10.325 0.364 18.27 1.094 23.836 0.73 5.566 2.674 10.084 5.835 13.552 3.161 3.469 8.308 5.203 15.44 5.203 3.89 0 9.159-0.685 15.805-2.057 6.646-1.371 11.833-2.057 15.561-2.057 5.35 0 10.172 2.138 14.468 6.413 4.295 4.276 6.443 9.56 6.443 15.851 0 10.648-5.835 18.795-17.507 24.442-11.67 5.647-28.448 8.47-50.331 8.47-20.749 0-36.472-3.469-47.171-10.406-10.699-6.937-17.71-16.536-21.032-28.798-3.323-12.261-4.985-28.636-4.985-49.126V476.063h-8.753c-9.564 0-16.858-2.258-21.883-6.776-5.025-4.517-7.538-10.244-7.538-17.182 0-6.937 2.634-12.624 7.902-17.06 5.269-4.437 12.928-6.656 22.978-6.656z" fill="#706F6F" p-id="42214"></path></svg>