<?xml version="1.0" standalone="no"?><!DOCTYPE svg PUBLIC "-//W3C//DTD SVG 1.1//EN" "http://www.w3.org/Graphics/SVG/1.1/DTD/svg11.dtd"><svg t="1603186897940" class="icon" viewBox="0 0 3032 1024" version="1.1" xmlns="http://www.w3.org/2000/svg" p-id="28053" xmlns:xlink="http://www.w3.org/1999/xlink" width="592.1875" height="200"><defs><style type="text/css"></style></defs><path d="M0 0h149.661538v437.169231h181.169231V0h149.661539v1024H330.830769V567.138462H149.661538V1024H0V0zM886.153846 0h441.107692v137.846154h-291.446153v299.323077h256v137.846154h-256v299.323077h291.446153V1024H886.153846V0zM1855.015385 0h122.092307l232.369231 1024h-149.661538l-43.323077-220.553846h-200.861539l-39.384615 220.553846h-149.661539l228.43077-1024z m63.015384 295.384615l-74.830769 370.215385h149.661538l-74.830769-370.215385zM2552.123077 0h220.553846c39.384615 0 74.830769 3.938462 106.338462 15.753846 31.507692 11.815385 59.076923 27.569231 82.707692 55.138462 23.630769 27.569231 43.323077 59.076923 51.2 94.523077 15.753846 35.446154 19.692308 86.646154 19.692308 145.723077 0 43.323077-3.938462 82.707692-7.876923 114.215384-3.938462 31.507692-15.753846 63.015385-35.446154 90.584616-19.692308 35.446154-47.261538 59.076923-82.707693 78.76923-35.446154 19.692308-78.769231 27.569231-133.907692 27.569231h-74.830769V1024h-149.661539V0z m149.661538 484.430769h70.892308c31.507692 0 51.2-3.938462 70.892308-11.815384 15.753846-7.876923 27.569231-19.692308 35.446154-35.446154 7.876923-15.753846 11.815385-31.507692 11.815384-55.138462 0-19.692308 3.938462-43.323077 3.938462-70.892307 0-23.630769 0-47.261538-3.938462-66.953847 0-19.692308-3.938462-39.384615-11.815384-55.138461-7.876923-15.753846-19.692308-27.569231-35.446154-35.446154-15.753846-7.876923-39.384615-11.815385-66.953846-11.815385h-78.769231v342.646154z" fill="#465265" p-id="28054"></path></svg>