<?xml version="1.0" standalone="no"?><!DOCTYPE svg PUBLIC "-//W3C//DTD SVG 1.1//EN" "http://www.w3.org/Graphics/SVG/1.1/DTD/svg11.dtd"><svg t="1603187736861" class="icon" viewBox="0 0 1024 1024" version="1.1" xmlns="http://www.w3.org/2000/svg" p-id="42365" xmlns:xlink="http://www.w3.org/1999/xlink" width="200" height="200"><defs><style type="text/css"></style></defs><path d="M396.501333 327.125333l10.496 3.584a42.666667 42.666667 0 0 1 28.970667 40.362667v280.277333a42.666667 42.666667 0 0 1-29.013333 40.362667l-10.453334 3.584V874.666667h372.949334a21.333333 21.333333 0 0 0 21.418666-21.333334V185.770667a36.394667 36.394667 0 0 0-36.48-36.437334H271.488a36.522667 36.522667 0 0 0-36.48 36.437334V853.333333a21.333333 21.333333 0 0 0 21.333333 21.333334H332.373333v-725.333334h64.128v177.792zM170.837333 874.666667V158.208A72.789333 72.789333 0 0 1 243.797333 85.333333H782.08a73.045333 73.045333 0 0 1 72.96 72.874667V874.666667h51.626667a32 32 0 1 1 0 64H117.376a32 32 0 1 1 0-64h53.418667z" p-id="42366" fill="#ffffff"></path></svg>