<?xml version="1.0" standalone="no"?><!DOCTYPE svg PUBLIC "-//W3C//DTD SVG 1.1//EN" "http://www.w3.org/Graphics/SVG/1.1/DTD/svg11.dtd"><svg t="1603187830302" class="icon" viewBox="0 0 1024 1024" version="1.1" xmlns="http://www.w3.org/2000/svg" p-id="43989" xmlns:xlink="http://www.w3.org/1999/xlink" width="200" height="200"><defs><style type="text/css"></style></defs><path d="M944.24896 103.296c58.176 58.24 60.48 151.04 6.976 212.032l-7.04 7.488-186.304 186.24 227.52 235.648c9.28 9.6 10.048 24.256 2.56 34.688l-3.2 3.712-184.192 177.92a27.2 27.2 0 0 1-34.752 2.496l-3.712-3.2-223.68-231.744-125.632 125.632a27.136 27.136 0 0 1-14.976 14.464 26.688 26.688 0 0 1-5.44 3.072l-5.12 1.536-226.24 45.248a27.2 27.2 0 0 1-32.576-26.368l0.576-5.632 45.248-226.24a27.2 27.2 0 0 1 4.032-9.792l0.64-1.92a27.136 27.136 0 0 1 14.336-13.824l129.472-129.536-227.52-235.52a27.2 27.2 0 0 1-2.56-34.688l3.2-3.712L280.12096 53.376a27.2 27.2 0 0 1 34.752-2.496l3.712 3.2 223.744 231.68 182.464-182.4c58.24-58.24 151.04-60.544 212.032-7.04l7.488 7.04zM334.32896 828.352l-115.328-114.944-28.672 143.808 144-28.864zM905.84896 141.76a100.8 100.8 0 0 0-135.808-6.208l-6.784 6.208-519.552 519.424 142.784 142.336 519.36-519.168a100.8 100.8 0 0 0 11.648-128.64l-5.504-7.168-6.144-6.784z m-186.368 405.76l-142.592 142.592 46.528 48.256 80.64-77.824a27.2 27.2 0 0 1 37.76 39.168l-80.64 77.76 33.408 34.56 80.64-77.824a27.2 27.2 0 1 1 37.76 39.168l-80.64 77.76 49.984 51.84 145.024-140.096-207.872-215.36zM298.23296 111.488L153.20896 251.52l70.016 72.512 80.64-77.824a27.2 27.2 0 0 1 37.76 39.168l-80.64 77.76 33.408 34.56 80.64-77.824a27.2 27.2 0 1 1 37.76 39.104l-80.64 77.824 28.992 30.016 142.592-142.592-205.504-212.736z" fill="#29A1FB" p-id="43990"></path></svg>