<?xml version="1.0" standalone="no"?><!DOCTYPE svg PUBLIC "-//W3C//DTD SVG 1.1//EN" "http://www.w3.org/Graphics/SVG/1.1/DTD/svg11.dtd"><svg t="1603164188926" class="icon" viewBox="0 0 1024 1024" version="1.1" xmlns="http://www.w3.org/2000/svg" p-id="8355" xmlns:xlink="http://www.w3.org/1999/xlink" width="200" height="200"><defs><style type="text/css"></style></defs><path d="M401.5 143.2h507.1c12.7 0 23.1-10.3 23.1-23.1S921.4 97 908.6 97H401.5c-12.7 0-23.1 10.3-23.1 23.1s10.3 23.1 23.1 23.1zM908.6 359.6H401.5c-12.7 0-23.1 10.3-23.1 23.1 0 12.7 10.3 23.1 23.1 23.1h507.1c12.7 0 23.1-10.3 23.1-23.1-0.1-12.8-10.4-23.1-23.1-23.1zM908.6 622.3H401.5c-12.7 0-23.1 10.3-23.1 23.1 0 12.7 10.3 23.1 23.1 23.1h507.1c12.7 0 23.1-10.3 23.1-23.1-0.1-12.8-10.4-23.1-23.1-23.1zM908.6 880.8H401.5c-12.7 0-23.1 10.3-23.1 23.1 0 12.7 10.3 23.1 23.1 23.1h507.1c12.7 0 23.1-10.3 23.1-23.1-0.1-12.8-10.4-23.1-23.1-23.1zM213.2 97.1c-12.7 0-23.1 10.3-23.1 23.1v728.1l-58.4-58.4c-9-9-23.6-9-32.6 0s-9 23.6 0 32.6l97.8 97.8c2.1 2.1 4.7 3.8 7.5 5 2.8 1.1 5.7 1.7 8.6 1.7h0.4c2.9 0 5.9-0.6 8.6-1.7 5.6-2.3 10.1-6.8 12.5-12.5 1.2-2.8 1.8-5.8 1.8-8.8V120.1c0-12.7-10.3-23-23.1-23z" p-id="8356" fill="#19214A"></path></svg>