<?xml version="1.0" standalone="no"?><!DOCTYPE svg PUBLIC "-//W3C//DTD SVG 1.1//EN" "http://www.w3.org/Graphics/SVG/1.1/DTD/svg11.dtd"><svg t="1603186079820" class="icon" viewBox="0 0 1024 1024" version="1.1" xmlns="http://www.w3.org/2000/svg" p-id="13029" xmlns:xlink="http://www.w3.org/1999/xlink" width="200" height="200"><defs><style type="text/css"></style></defs><path d="M372.4 310.2c37.9 28.1 59.2 71.3 64.5 130.5H355c-7.6-34.9-21.2-60.7-42.5-75.9-21.2-15.9-51.6-23.5-92.5-23.5-35.7 0-63 5.3-81.9 15.9-23.5 12.1-34.9 31.9-34.9 59.2 0 24.3 12.9 43.2 40.2 57.7 12.1 6.8 43.2 18.2 94.1 33.4 72.8 22.8 120.6 40.2 141.9 53.1 46.3 28.1 69.8 66.8 69.8 116.8 0 48.5-19 86.5-56.9 114.5-37.9 27.3-91 41-159.3 41-66 0-117.6-13.7-154.8-39.4-44.8-31.9-69-81.9-73.6-150.2h81.9c6.1 42.5 21.2 73.6 45.5 91.8 22 16.7 55.4 25 100.9 25 41 0 73.6-7.6 97.9-21.2 24.3-13.7 36.4-32.6 36.4-56.9 0-30.3-17.4-53.9-51.6-71.3-12.1-6.1-47.8-18.2-107.7-36.4C141 553 100 538.6 83.3 529.5 41.6 504.4 21.1 468 21.1 421c0-47.8 19.7-85 59.9-112.3 38-25.8 85.8-38.7 143.4-38.7 63 0 112.3 12.9 148 40.2z" p-id="13030" fill="#ffffff"></path><path d="M634 430.1h89.5v66.8H634v227.6c0 10.6 2.3 18.2 6.8 23.5 4.6 4.6 11.4 7.6 21.2 7.6h51.6v66.8h-64.5c-33.4 0-58.4-9.1-73.6-26.6-15.2-16.7-22-40.2-22-71.3V496.8h-72.8V430h72.8v-93.3l80.4-33.4v126.8zM1020.8 429.3v80.4c-19.7-6.1-38.7-8.3-56.9-8.3-24.3 0-46.3 9.9-65.2 29.6-20.5 21.2-30.3 49.3-30.3 83.4v207.9H788V430.1h80.4v59.2c9.9-21.2 22.8-37.2 37.9-47.8 18.2-15.2 39.4-22 63.7-22 19.7 0 37.2 3 50.8 9.8z" p-id="13031" fill="#ffffff"></path></svg>