<?xml version="1.0" standalone="no"?><!DOCTYPE svg PUBLIC "-//W3C//DTD SVG 1.1//EN" "http://www.w3.org/Graphics/SVG/1.1/DTD/svg11.dtd"><svg t="1603186746180" class="icon" viewBox="0 0 1024 1024" version="1.1" xmlns="http://www.w3.org/2000/svg" p-id="26365" xmlns:xlink="http://www.w3.org/1999/xlink" width="200" height="200"><defs><style type="text/css"></style></defs><path d="M196.096 125.568v158.272H128V64h320v896H128v-219.84h68.096v158.272h183.808V125.568H196.096zM576 64h320v219.84h-68.096V125.568h-183.808v772.864h183.808v-158.272H896V960H576V64z" fill="#3FA5FF" p-id="26366"></path><path d="M930.752 631.68a26.88 26.88 0 0 0 0-40.32l-55.872-50.816h117.76c17.28 0 31.36-12.8 31.36-28.544s-14.08-28.48-31.36-28.48h-117.76l55.872-50.816a26.816 26.816 0 0 0 8.128-27.52 30.08 30.08 0 0 0-22.208-20.224 33.6 33.6 0 0 0-30.336 7.424L776.96 491.84a17.024 17.024 0 0 0-2.624 3.648l-1.28 1.92c-0.576 0.896-1.152 1.6-2.752 3.648-3.2 6.976-3.2 14.976 0.96 23.168l1.728 2.304 1.28 2.048c0.768 1.28 1.664 2.56 2.688 3.648l109.44 99.392c5.824 5.376 13.824 8.384 22.144 8.384 8.32 0 16.32-3.008 22.208-8.32zM31.36 483.456h117.76l-55.872-50.752a26.752 26.752 0 0 1 0-40.32 33.664 33.664 0 0 1 44.416-0.064L247.04 491.84c1.024 1.088 1.92 2.304 2.624 3.584l1.28 2.048a24.512 24.512 0 0 0 1.792 2.304 25.984 25.984 0 0 1 0.96 23.232c-1.6 1.92-2.176 2.752-2.752 3.52l-1.28 2.048a17.024 17.024 0 0 1-2.624 3.584L137.6 631.68a33.6 33.6 0 0 1-44.352 0 26.752 26.752 0 0 1 0-40.32l55.872-50.752H31.36C14.08 540.544 0 527.744 0 512s14.08-28.544 31.36-28.544z" fill="#3FA5FF" p-id="26367"></path></svg>